<svg width="80" height="80" viewBox="0 0 80 80" fill="none" xmlns="http://www.w3.org/2000/svg">
<path d="M58.3333 18.1665H21.6667C17.9848 18.1665 15 21.1513 15 24.8332V55.1665C15 58.8484 17.9848 61.8332 21.6667 61.8332H58.3333C62.0152 61.8332 65 58.8484 65 55.1665V24.8332C65 21.1513 62.0152 18.1665 58.3333 18.1665Z" stroke="#FFA518" stroke-width="3.11111"/>
<path d="M65.2252 23.9139C65.2252 27.7629 59.7533 30.8825 53.003 30.8825C46.2527 30.8825 40.7808 27.7629 40.7808 23.9139C40.7808 20.0649 46.2527 16.9453 53.003 16.9453C59.7533 16.9453 65.2252 20.0649 65.2252 23.9139Z" stroke="#FFA518" stroke-width="2.93333" stroke-linecap="round" stroke-linejoin="round"/>
<path d="M53.0003 21.422C56.667 19.7809 59.1114 22.4243 59.1114 23.6612C59.1114 27.343 46.8892 27.1513 46.8892 22.6159C46.8892 19.8471 49.3336 16.9458 53.0003 16.9458" stroke="#FFA518" stroke-width="2.93333" stroke-linecap="round" stroke-linejoin="round"/>
<path d="M58.3333 18.1665H21.6667C17.9848 18.1665 15 21.1513 15 24.8332V55.1665C15 58.8484 17.9848 61.8332 21.6667 61.8332H58.3333C62.0152 61.8332 65 58.8484 65 55.1665V24.8332C65 21.1513 62.0152 18.1665 58.3333 18.1665Z" stroke="#FFA518" stroke-width="3.5"/>
<path d="M65.2252 23.9139C65.2252 27.7629 59.7533 30.8825 53.003 30.8825C46.2527 30.8825 40.7808 27.7629 40.7808 23.9139C40.7808 20.0649 46.2527 16.9453 53.003 16.9453C59.7533 16.9453 65.2252 20.0649 65.2252 23.9139Z" stroke="#FFA518" stroke-width="2.93333" stroke-linecap="round" stroke-linejoin="round"/>
<path d="M53.0003 21.422C56.667 19.7809 59.1114 22.4243 59.1114 23.6612C59.1114 27.343 46.8892 27.1513 46.8892 22.6159C46.8892 19.8471 49.3336 16.9458 53.0003 16.9458" stroke="#FFA518" stroke-width="2.93333" stroke-linecap="round" stroke-linejoin="round"/>
<path d="M23.4017 51.2225V49.7948C22.9872 49.8869 22.5819 49.9606 22.2227 50.0159C22.2043 50.0159 22.1767 50.0159 22.1582 50.0159C21.9924 50.0159 21.8819 49.9054 21.8727 49.7396C21.8635 49.7119 21.8635 49.6843 21.8635 49.6659C21.8635 49.5093 21.9464 49.3988 22.1306 49.3804C23.0056 49.2606 24.2122 48.9567 24.9306 48.6159C24.9859 48.579 25.0411 48.5698 25.0964 48.5698C25.2253 48.5698 25.3267 48.6435 25.3819 48.7725C25.4003 48.8185 25.4095 48.8738 25.4095 48.9198C25.4095 49.058 25.3267 49.1777 25.1977 49.2422C24.8938 49.3711 24.4977 49.5093 24.0648 49.629V51.2225H25.3727C25.5385 51.2225 25.6306 51.3698 25.6306 51.5448C25.6306 51.7383 25.5477 51.858 25.3819 51.858H24.0648V53.3317H24.5898C25.0964 53.3317 25.3359 53.5251 25.3359 54.0409V56.0856C25.3359 56.6198 25.0872 56.8225 24.5622 56.8225H22.8767C22.3517 56.8225 22.103 56.6198 22.103 56.0856V54.0409C22.103 53.5251 22.3424 53.3317 22.849 53.3317H23.4017V51.858H22.0201C21.8543 51.858 21.7622 51.729 21.7622 51.5356C21.7622 51.3514 21.8543 51.2225 22.0201 51.2225H23.4017ZM22.7845 54.179V55.9567C22.7845 56.1409 22.8674 56.1961 23.0517 56.1961H24.4332C24.6082 56.1961 24.6543 56.1409 24.6543 55.9567V54.179C24.6543 53.9856 24.6082 53.9396 24.4332 53.9396H23.0517C22.8674 53.9396 22.7845 53.9856 22.7845 54.179ZM26.1556 50.9185H25.5938C25.4372 50.9185 25.3359 50.7804 25.3359 50.5961C25.3359 50.4027 25.428 50.283 25.5845 50.283H26.1556V48.8646C26.1556 48.6896 26.2938 48.6067 26.5056 48.6067C26.7174 48.6067 26.8556 48.6896 26.8556 48.8646V50.283H28.8635V48.8646C28.8635 48.6896 29.0017 48.6067 29.2135 48.6067C29.4253 48.6067 29.5635 48.6896 29.5635 48.8646V50.283H30.0977C30.2635 50.283 30.3556 50.4119 30.3556 50.6054C30.3556 50.7896 30.2635 50.9185 30.0977 50.9185H29.5635V56.0764C29.5635 56.6106 29.3148 56.8133 28.7898 56.8133H26.9201C26.4043 56.8133 26.1556 56.6106 26.1556 56.0764V50.9185ZM26.8556 53.6633V55.9383C26.8556 56.1225 26.9385 56.1777 27.1227 56.1777H28.5872C28.7714 56.1777 28.8635 56.1225 28.8635 55.9383V53.6633H26.8556ZM28.8635 53.0369V50.9185H26.8556V53.0369H28.8635Z" fill="#FFA518"/>
<mask id="mask0_127_3191" style="mask-type:luminance" maskUnits="userSpaceOnUse" x="20" y="48" width="11" height="10">
<path d="M30.999 48.2974H20.999V57.2974H30.999V48.2974Z" fill="white"/>
<path d="M23.4017 51.2225V49.7948C22.9872 49.8869 22.5819 49.9606 22.2227 50.0159C22.2043 50.0159 22.1767 50.0159 22.1582 50.0159C21.9924 50.0159 21.8819 49.9054 21.8727 49.7396C21.8635 49.7119 21.8635 49.6843 21.8635 49.6659C21.8635 49.5093 21.9464 49.3988 22.1306 49.3804C23.0056 49.2606 24.2122 48.9567 24.9306 48.6159C24.9859 48.579 25.0411 48.5698 25.0964 48.5698C25.2253 48.5698 25.3267 48.6435 25.3819 48.7725C25.4003 48.8185 25.4095 48.8738 25.4095 48.9198C25.4095 49.058 25.3267 49.1777 25.1977 49.2422C24.8938 49.3711 24.4977 49.5093 24.0648 49.629V51.2225H25.3727C25.5385 51.2225 25.6306 51.3698 25.6306 51.5448C25.6306 51.7383 25.5477 51.858 25.3819 51.858H24.0648V53.3317H24.5898C25.0964 53.3317 25.3359 53.5251 25.3359 54.0409V56.0856C25.3359 56.6198 25.0872 56.8225 24.5622 56.8225H22.8767C22.3517 56.8225 22.103 56.6198 22.103 56.0856V54.0409C22.103 53.5251 22.3424 53.3317 22.849 53.3317H23.4017V51.858H22.0201C21.8543 51.858 21.7622 51.729 21.7622 51.5356C21.7622 51.3514 21.8543 51.2225 22.0201 51.2225H23.4017ZM22.7845 54.179V55.9567C22.7845 56.1409 22.8674 56.1961 23.0517 56.1961H24.4332C24.6082 56.1961 24.6543 56.1409 24.6543 55.9567V54.179C24.6543 53.9856 24.6082 53.9396 24.4332 53.9396H23.0517C22.8674 53.9396 22.7845 53.9856 22.7845 54.179ZM26.1556 50.9185H25.5938C25.4372 50.9185 25.3359 50.7804 25.3359 50.5961C25.3359 50.4027 25.428 50.283 25.5845 50.283H26.1556V48.8646C26.1556 48.6896 26.2938 48.6067 26.5056 48.6067C26.7174 48.6067 26.8556 48.6896 26.8556 48.8646V50.283H28.8635V48.8646C28.8635 48.6896 29.0017 48.6067 29.2135 48.6067C29.4253 48.6067 29.5635 48.6896 29.5635 48.8646V50.283H30.0977C30.2635 50.283 30.3556 50.4119 30.3556 50.6054C30.3556 50.7896 30.2635 50.9185 30.0977 50.9185H29.5635V56.0764C29.5635 56.6106 29.3148 56.8133 28.7898 56.8133H26.9201C26.4043 56.8133 26.1556 56.6106 26.1556 56.0764V50.9185ZM26.8556 53.6633V55.9383C26.8556 56.1225 26.9385 56.1777 27.1227 56.1777H28.5872C28.7714 56.1777 28.8635 56.1225 28.8635 55.9383V53.6633H26.8556ZM28.8635 53.0369V50.9185H26.8556V53.0369H28.8635Z" fill="black"/>
</mask>
<g mask="url(#mask0_127_3191)">
<path d="M23.4017 51.2224V51.3868H23.5661V51.2224H23.4017ZM23.4017 49.7947H23.5661V49.5897L23.366 49.6342L23.4017 49.7947ZM22.2227 50.0158V50.1803H22.2353L22.2477 50.1783L22.2227 50.0158ZM21.8727 49.7395L22.0369 49.7303L22.0357 49.7084L22.0287 49.6875L21.8727 49.7395ZM22.1306 49.3803L22.147 49.544L22.1529 49.5432L22.1306 49.3803ZM24.9306 48.6158L25.0011 48.7644L25.0119 48.7593L25.0218 48.7526L24.9306 48.6158ZM25.3819 48.7724L25.5347 48.7113L25.5331 48.7076L25.3819 48.7724ZM25.1977 49.2421L25.2621 49.3938L25.2713 49.3892L25.1977 49.2421ZM24.0648 49.6289L24.021 49.4704L23.9003 49.5038V49.6289H24.0648ZM24.0648 51.2224H23.9003V51.3868H24.0648V51.2224ZM24.0648 51.8579V51.6934H23.9003V51.8579H24.0648ZM24.0648 53.3316H23.9003V53.496H24.0648V53.3316ZM23.4017 53.3316V53.496H23.5661V53.3316H23.4017ZM23.4017 51.8579H23.5661V51.6934H23.4017V51.8579ZM26.1556 50.9184H26.3201V50.7539H26.1556V50.9184ZM26.1556 50.2829V50.4474H26.3201V50.2829H26.1556ZM26.8556 50.2829H26.6911V50.4474H26.8556V50.2829ZM28.8635 50.2829V50.4474H29.028V50.2829H28.8635ZM29.5635 50.2829H29.399V50.4474H29.5635V50.2829ZM29.5635 50.9184V50.7539H29.399V50.9184H29.5635ZM26.8556 53.6632V53.4987H26.6911V53.6632H26.8556ZM28.8635 53.6632H29.028V53.4987H28.8635V53.6632ZM28.8635 53.0368V53.2013H29.028V53.0368H28.8635ZM28.8635 50.9184H29.028V50.7539H28.8635V50.9184ZM26.8556 50.9184V50.7539H26.6911V50.9184H26.8556ZM26.8556 53.0368H26.6911V53.2013H26.8556V53.0368ZM23.5661 51.2224V49.7947H23.2372V51.2224H23.5661ZM23.366 49.6342C22.9554 49.7254 22.5537 49.7985 22.1977 49.8532L22.2477 50.1783C22.6101 50.1226 23.019 50.0483 23.4373 49.9553L23.366 49.6342ZM22.2227 49.8513C22.2226 49.8513 22.2228 49.8513 22.2227 49.8513C22.2227 49.8513 22.2218 49.8513 22.2217 49.8513C22.2216 49.8513 22.2218 49.8513 22.2217 49.8513C22.2217 49.8513 22.2207 49.8513 22.2206 49.8513C22.2205 49.8513 22.2207 49.8513 22.2206 49.8513H22.2196C22.2195 49.8513 22.2197 49.8513 22.2196 49.8513C22.2195 49.8513 22.2185 49.8513 22.2185 49.8513C22.2185 49.8513 22.2176 49.8513 22.2175 49.8513C22.2174 49.8513 22.2176 49.8513 22.2175 49.8513C22.2174 49.8513 22.2164 49.8513 22.2164 49.8513H22.2154C22.2154 49.8513 22.2144 49.8513 22.2143 49.8513C22.2142 49.8513 22.2144 49.8513 22.2143 49.8513C22.2142 49.8513 22.2134 49.8513 22.2133 49.8513C22.2132 49.8513 22.2134 49.8513 22.2133 49.8513C22.2132 49.8513 22.2123 49.8513 22.2122 49.8513C22.2121 49.8513 22.2123 49.8513 22.2122 49.8513C22.2121 49.8513 22.2113 49.8513 22.2112 49.8513C22.2112 49.8513 22.2102 49.8513 22.2101 49.8513C22.2101 49.8513 22.2092 49.8513 22.2091 49.8513C22.209 49.8513 22.208 49.8513 22.208 49.8513C22.2079 49.8513 22.207 49.8513 22.2069 49.8513H22.2058C22.2057 49.8513 22.2048 49.8513 22.2047 49.8513H22.2037C22.2036 49.8513 22.2027 49.8513 22.2026 49.8513C22.2025 49.8513 22.2015 49.8513 22.2015 49.8513C22.2014 49.8513 22.2006 49.8513 22.2005 49.8513C22.2004 49.8513 22.1994 49.8513 22.1993 49.8513C22.1992 49.8513 22.1982 49.8513 22.1981 49.8513H22.1971C22.197 49.8513 22.1972 49.8513 22.1971 49.8513H22.196C22.1959 49.8513 22.195 49.8513 22.1949 49.8513C22.1948 49.8513 22.1939 49.8513 22.1938 49.8513H22.1928C22.1927 49.8513 22.1929 49.8513 22.1928 49.8513H22.1917C22.1916 49.8513 22.1908 49.8513 22.1907 49.8513C22.1906 49.8513 22.1896 49.8513 22.1895 49.8513C22.1894 49.8513 22.1885 49.8513 22.1884 49.8513H22.1874C22.1873 49.8513 22.1875 49.8513 22.1874 49.8513H22.1863C22.1862 49.8513 22.1853 49.8513 22.1852 49.8513C22.1851 49.8513 22.1842 49.8513 22.1841 49.8513H22.1831C22.183 49.8513 22.1832 49.8513 22.1831 49.8513H22.182C22.1819 49.8513 22.181 49.8513 22.1809 49.8513C22.1808 49.8513 22.1798 49.8513 22.1797 49.8513C22.1796 49.8513 22.1786 49.8513 22.1786 49.8513C22.1785 49.8513 22.1777 49.8513 22.1776 49.8513C22.1775 49.8513 22.1765 49.8513 22.1765 49.8513C22.1764 49.8513 22.1755 49.8513 22.1754 49.8513C22.1753 49.8513 22.1743 49.8513 22.1743 49.8513C22.1742 49.8513 22.1733 49.8513 22.1732 49.8513H22.1721H22.1711C22.171 49.8513 22.17 49.8513 22.1699 49.8513C22.1698 49.8513 22.17 49.8513 22.1699 49.8513C22.1698 49.8513 22.169 49.8513 22.1689 49.8513C22.1688 49.8513 22.169 49.8513 22.1689 49.8513C22.1688 49.8513 22.1679 49.8513 22.1678 49.8513C22.1677 49.8513 22.1679 49.8513 22.1678 49.8513C22.1677 49.8513 22.1668 49.8513 22.1667 49.8513C22.1666 49.8513 22.1668 49.8513 22.1667 49.8513C22.1666 49.8513 22.1657 49.8513 22.1657 49.8513H22.1647C22.1646 49.8513 22.1648 49.8513 22.1647 49.8513C22.1646 49.8513 22.1637 49.8513 22.1636 49.8513C22.1635 49.8513 22.1637 49.8513 22.1636 49.8513H22.1626C22.1625 49.8513 22.1627 49.8513 22.1626 49.8513C22.1625 49.8513 22.1615 49.8513 22.1614 49.8513C22.1613 49.8513 22.1615 49.8513 22.1614 49.8513C22.1614 49.8513 22.1604 49.8513 22.1603 49.8513C22.1602 49.8513 22.1604 49.8513 22.1603 49.8513C22.1603 49.8513 22.1594 49.8513 22.1593 49.8513C22.1592 49.8513 22.1594 49.8513 22.1593 49.8513C22.1593 49.8513 22.1583 49.8513 22.1582 49.8513V50.1803C22.1581 50.1803 22.1583 50.1803 22.1582 50.1803H22.1593C22.1592 50.1803 22.1594 50.1803 22.1593 50.1803H22.1603C22.1602 50.1803 22.1604 50.1803 22.1603 50.1803C22.1604 50.1803 22.1614 50.1803 22.1614 50.1803C22.1613 50.1803 22.1615 50.1803 22.1614 50.1803C22.1615 50.1803 22.1623 50.1803 22.1624 50.1803C22.1623 50.1803 22.1625 50.1803 22.1624 50.1803H22.1635C22.1634 50.1803 22.1636 50.1803 22.1635 50.1803C22.1636 50.1803 22.1644 50.1803 22.1645 50.1803C22.1644 50.1803 22.1646 50.1803 22.1645 50.1803C22.1646 50.1803 22.1656 50.1803 22.1657 50.1803C22.1656 50.1803 22.1658 50.1803 22.1657 50.1803C22.1658 50.1803 22.1667 50.1803 22.1667 50.1803C22.1668 50.1803 22.1678 50.1803 22.1678 50.1803H22.1688C22.1689 50.1803 22.1699 50.1803 22.1699 50.1803C22.17 50.1803 22.1709 50.1803 22.1709 50.1803C22.171 50.1803 22.1719 50.1803 22.172 50.1803C22.1719 50.1803 22.1721 50.1803 22.172 50.1803C22.1721 50.1803 22.1729 50.1803 22.173 50.1803H22.1741C22.1742 50.1803 22.1751 50.1803 22.1752 50.1803H22.1763C22.1764 50.1803 22.1773 50.1803 22.1774 50.1803H22.1784C22.1785 50.1803 22.1793 50.1803 22.1794 50.1803C22.1795 50.1803 22.1805 50.1803 22.1805 50.1803C22.1806 50.1803 22.1814 50.1803 22.1815 50.1803C22.1816 50.1803 22.1826 50.1803 22.1827 50.1803C22.1828 50.1803 22.1838 50.1803 22.1839 50.1803C22.184 50.1803 22.1849 50.1803 22.1849 50.1803C22.1848 50.1803 22.185 50.1803 22.1849 50.1803H22.186C22.1861 50.1803 22.1869 50.1803 22.187 50.1803C22.1871 50.1803 22.1881 50.1803 22.1882 50.1803C22.1883 50.1803 22.1892 50.1803 22.1893 50.1803H22.1903C22.1904 50.1803 22.1912 50.1803 22.1913 50.1803C22.1914 50.1803 22.1923 50.1803 22.1924 50.1803H22.1934C22.1933 50.1803 22.1935 50.1803 22.1934 50.1803H22.1945C22.1946 50.1803 22.1954 50.1803 22.1955 50.1803C22.1956 50.1803 22.1966 50.1803 22.1967 50.1803C22.1968 50.1803 22.1978 50.1803 22.1979 50.1803H22.1989C22.1988 50.1803 22.199 50.1803 22.1989 50.1803H22.2C22.2001 50.1803 22.201 50.1803 22.2011 50.1803C22.2012 50.1803 22.2022 50.1803 22.2022 50.1803C22.2023 50.1803 22.2031 50.1803 22.2032 50.1803C22.2033 50.1803 22.2043 50.1803 22.2043 50.1803C22.2044 50.1803 22.2052 50.1803 22.2053 50.1803H22.2064C22.2065 50.1803 22.2074 50.1803 22.2075 50.1803H22.2086H22.2096C22.2097 50.1803 22.2107 50.1803 22.2107 50.1803C22.2108 50.1803 22.2117 50.1803 22.2117 50.1803C22.2118 50.1803 22.2128 50.1803 22.2129 50.1803C22.2128 50.1803 22.213 50.1803 22.2129 50.1803C22.213 50.1803 22.2139 50.1803 22.214 50.1803C22.2139 50.1803 22.2141 50.1803 22.214 50.1803C22.2141 50.1803 22.215 50.1803 22.215 50.1803H22.2161C22.216 50.1803 22.2162 50.1803 22.2161 50.1803C22.2162 50.1803 22.217 50.1803 22.2171 50.1803C22.217 50.1803 22.2172 50.1803 22.2171 50.1803C22.2172 50.1803 22.2182 50.1803 22.2182 50.1803C22.2181 50.1803 22.2183 50.1803 22.2182 50.1803C22.2183 50.1803 22.2192 50.1803 22.2193 50.1803C22.2192 50.1803 22.2194 50.1803 22.2193 50.1803H22.2204C22.2203 50.1803 22.2205 50.1803 22.2204 50.1803H22.2214C22.2213 50.1803 22.2215 50.1803 22.2214 50.1803H22.2227V49.8513ZM22.1582 49.8513C22.1132 49.8513 22.087 49.8371 22.0717 49.8221C22.0558 49.8067 22.0396 49.7785 22.0369 49.7303L21.7085 49.7486C21.715 49.8662 21.7587 49.9762 21.8418 50.0575C21.9255 50.1392 22.0375 50.1803 22.1582 50.1803V49.8513ZM22.0287 49.6875C22.0292 49.689 22.0288 49.6883 22.0284 49.6843C22.0281 49.6799 22.028 49.6753 22.028 49.6658H21.699C21.699 49.6829 21.698 49.7355 21.7167 49.7915L22.0287 49.6875ZM22.028 49.6658C22.028 49.616 22.0408 49.5919 22.0512 49.5801C22.061 49.5691 22.0851 49.5502 22.147 49.544L22.1142 49.2166C21.9919 49.2288 21.8825 49.2743 21.8047 49.3623C21.7276 49.4496 21.699 49.559 21.699 49.6658H22.028ZM22.1529 49.5432C23.0377 49.4221 24.2622 49.1149 25.0011 48.7644L24.8601 48.4672C24.1622 48.7983 22.9735 49.0989 22.1083 49.2173L22.1529 49.5432ZM25.0218 48.7526C25.0415 48.7395 25.0615 48.7342 25.0964 48.7342V48.4053C25.0208 48.4053 24.9302 48.4184 24.8394 48.4789L25.0218 48.7526ZM25.0964 48.7342C25.15 48.7342 25.1974 48.7594 25.2307 48.8372L25.5331 48.7076C25.4559 48.5274 25.3007 48.4053 25.0964 48.4053V48.7342ZM25.2292 48.8334C25.239 48.858 25.2451 48.8922 25.2451 48.9197H25.574C25.574 48.8551 25.5618 48.7789 25.5347 48.7113L25.2292 48.8334ZM25.2451 48.9197C25.2451 48.987 25.2055 49.0543 25.1242 49.095L25.2713 49.3892C25.4478 49.301 25.574 49.1288 25.574 48.9197H25.2451ZM25.1335 49.0907C24.8371 49.2164 24.448 49.3523 24.021 49.4704L24.1087 49.7875C24.5474 49.6661 24.9506 49.526 25.2621 49.3938L25.1335 49.0907ZM23.9003 49.6289V51.2224H24.2293V49.6289H23.9003ZM24.0648 51.3868H25.3727V51.0579H24.0648V51.3868ZM25.3727 51.3868C25.4006 51.3868 25.4173 51.3966 25.4319 51.4162C25.4498 51.4402 25.4661 51.4839 25.4661 51.5447H25.7951C25.7951 51.4306 25.7653 51.3131 25.6957 51.2197C25.6228 51.1218 25.5106 51.0579 25.3727 51.0579V51.3868ZM25.4661 51.5447C25.4661 51.6213 25.4492 51.659 25.4379 51.6738C25.4317 51.6819 25.4209 51.6934 25.3819 51.6934V52.0224C25.5087 52.0224 25.6223 51.974 25.699 51.8739C25.7705 51.7805 25.7951 51.6615 25.7951 51.5447H25.4661ZM25.3819 51.6934H24.0648V52.0224H25.3819V51.6934ZM23.9003 51.8579V53.3316H24.2293V51.8579H23.9003ZM24.0648 53.496H24.5898V53.1671H24.0648V53.496ZM24.5898 53.496C24.8279 53.496 24.9637 53.5426 25.0417 53.614C25.1164 53.6825 25.1714 53.8049 25.1714 54.0408H25.5003C25.5003 53.7609 25.4356 53.5287 25.2639 53.3715C25.0955 53.2173 24.8583 53.1671 24.5898 53.1671V53.496ZM25.1714 54.0408V56.0855H25.5003V54.0408H25.1714ZM25.1714 56.0855C25.1714 56.3305 25.1142 56.46 25.0346 56.5332C24.9519 56.6092 24.8092 56.6579 24.5622 56.6579V56.9868C24.8402 56.9868 25.0843 56.9342 25.2572 56.7754C25.4332 56.6136 25.5003 56.3747 25.5003 56.0855H25.1714ZM24.5622 56.6579H22.8767V56.9868H24.5622V56.6579ZM22.8767 56.6579C22.6297 56.6579 22.4869 56.6092 22.4042 56.5332C22.3246 56.46 22.2674 56.3305 22.2674 56.0855H21.9385C21.9385 56.3747 22.0056 56.6136 22.1817 56.7754C22.3545 56.9342 22.5986 56.9868 22.8767 56.9868V56.6579ZM22.2674 56.0855V54.0408H21.9385V56.0855H22.2674ZM22.2674 54.0408C22.2674 53.8049 22.3224 53.6825 22.3971 53.614C22.4751 53.5426 22.6109 53.496 22.849 53.496V53.1671C22.5806 53.1671 22.3433 53.2173 22.1749 53.3715C22.0033 53.5287 21.9385 53.7609 21.9385 54.0408H22.2674ZM22.849 53.496H23.4017V53.1671H22.849V53.496ZM23.5661 53.3316V51.8579H23.2372V53.3316H23.5661ZM23.4017 51.6934H22.0201V52.0224H23.4017V51.6934ZM22.0201 51.6934C21.9846 51.6934 21.9695 51.6821 21.9589 51.6684C21.9443 51.6496 21.9267 51.6086 21.9267 51.5355H21.5977C21.5977 51.6559 21.6261 51.7761 21.699 51.87C21.7759 51.9692 21.8898 52.0224 22.0201 52.0224V51.6934ZM21.9267 51.5355C21.9267 51.4687 21.9435 51.4301 21.9579 51.412C21.9686 51.3984 21.9844 51.3868 22.0201 51.3868V51.0579C21.89 51.0579 21.7768 51.1108 21.7 51.2078C21.6269 51.3002 21.5977 51.4181 21.5977 51.5355H21.9267ZM22.0201 51.3868H23.4017V51.0579H22.0201V51.3868ZM22.6201 54.1789V55.9566H22.949V54.1789H22.6201ZM22.6201 55.9566C22.6201 56.0689 22.645 56.1886 22.7431 56.2712C22.8337 56.3475 22.9518 56.3605 23.0517 56.3605V56.0316C23.0127 56.0316 22.987 56.0285 22.9705 56.0246C22.9547 56.0208 22.9524 56.0174 22.955 56.0196C22.9656 56.0285 22.949 56.0285 22.949 55.9566H22.6201ZM23.0517 56.3605H24.4332V56.0316H23.0517V56.3605ZM24.4332 56.3605C24.5266 56.3605 24.6472 56.3486 24.7313 56.2558C24.8106 56.1683 24.8188 56.0491 24.8188 55.9566H24.4898C24.4898 55.9974 24.4871 56.0215 24.484 56.0353C24.4811 56.048 24.4798 56.0435 24.4875 56.0349C24.4961 56.0255 24.5035 56.0244 24.4975 56.0261C24.489 56.0285 24.4701 56.0316 24.4332 56.0316V56.3605ZM24.8188 55.9566V54.1789H24.4898V55.9566H24.8188ZM24.8188 54.1789C24.8188 54.0844 24.8115 53.9619 24.7295 53.8743C24.6437 53.7826 24.5209 53.775 24.4332 53.775V54.1039C24.4718 54.1039 24.4917 54.1067 24.5012 54.1091C24.5082 54.1109 24.4994 54.1099 24.4893 54.099C24.4799 54.089 24.4809 54.0829 24.4839 54.0958C24.487 54.1101 24.4898 54.1354 24.4898 54.1789H24.8188ZM24.4332 53.775H23.0517V54.1039H24.4332V53.775ZM23.0517 53.775C22.9566 53.775 22.837 53.7842 22.7451 53.8592C22.6437 53.9419 22.6201 54.0648 22.6201 54.1789H22.949C22.949 54.0997 22.9668 54.1028 22.953 54.1141C22.9492 54.1172 22.9506 54.114 22.9672 54.1104C22.9846 54.1066 23.0112 54.1039 23.0517 54.1039V53.775ZM26.1556 50.7539H25.5938V51.0829H26.1556V50.7539ZM25.5938 50.7539C25.5689 50.7539 25.5512 50.745 25.5358 50.7252C25.5179 50.7022 25.5003 50.6595 25.5003 50.596H25.1714C25.1714 50.7168 25.2045 50.8353 25.2764 50.9275C25.3508 51.0228 25.4621 51.0829 25.5938 51.0829V50.7539ZM25.5003 50.596C25.5003 50.5231 25.5179 50.4849 25.5307 50.4687C25.5396 50.4573 25.5525 50.4474 25.5845 50.4474V50.1184C25.46 50.1184 25.3485 50.1683 25.2723 50.2652C25.1998 50.3572 25.1714 50.4756 25.1714 50.596H25.5003ZM25.5845 50.4474H26.1556V50.1184H25.5845V50.4474ZM26.3201 50.2829V48.8645H25.9911V50.2829H26.3201ZM26.3201 48.8645C26.3201 48.8427 26.3243 48.8306 26.3275 48.8242C26.3305 48.8181 26.3354 48.8116 26.3453 48.8048C26.3679 48.789 26.4172 48.771 26.5056 48.771V48.4421C26.3821 48.4421 26.2564 48.4656 26.157 48.535C26.0489 48.6105 25.9911 48.727 25.9911 48.8645H26.3201ZM26.5056 48.771C26.594 48.771 26.6433 48.789 26.6659 48.8048C26.6758 48.8116 26.6807 48.8181 26.6837 48.8242C26.6869 48.8306 26.6911 48.8427 26.6911 48.8645H27.0201C27.0201 48.727 26.9623 48.6105 26.8542 48.535C26.7548 48.4656 26.6291 48.4421 26.5056 48.4421V48.771ZM26.6911 48.8645V50.2829H27.0201V48.8645H26.6911ZM26.8556 50.4474H28.8635V50.1184H26.8556V50.4474ZM29.028 50.2829V48.8645H28.699V50.2829H29.028ZM29.028 48.8645C29.028 48.8427 29.0322 48.8306 29.0354 48.8242C29.0384 48.8181 29.0433 48.8116 29.0532 48.8048C29.0758 48.789 29.1251 48.771 29.2135 48.771V48.4421C29.09 48.4421 28.9643 48.4656 28.8649 48.535C28.7568 48.6105 28.699 48.727 28.699 48.8645H29.028ZM29.2135 48.771C29.3019 48.771 29.3512 48.789 29.3738 48.8048C29.3837 48.8116 29.3886 48.8181 29.3916 48.8242C29.3948 48.8306 29.399 48.8427 29.399 48.8645H29.728C29.728 48.727 29.6702 48.6105 29.5621 48.535C29.4627 48.4656 29.337 48.4421 29.2135 48.4421V48.771ZM29.399 48.8645V50.2829H29.728V48.8645H29.399ZM29.5635 50.4474H30.0977V50.1184H29.5635V50.4474ZM30.0977 50.4474C30.1332 50.4474 30.1483 50.4587 30.1589 50.4723C30.1735 50.4912 30.1911 50.5322 30.1911 50.6053H30.5201C30.5201 50.4849 30.4917 50.3647 30.4188 50.2707C30.3419 50.1715 30.228 50.1184 30.0977 50.1184V50.4474ZM30.1911 50.6053C30.1911 50.6721 30.1742 50.7107 30.1599 50.7288C30.1492 50.7423 30.1334 50.7539 30.0977 50.7539V51.0829C30.2278 51.0829 30.341 51.03 30.4178 50.933C30.4909 50.8406 30.5201 50.7226 30.5201 50.6053H30.1911ZM30.0977 50.7539H29.5635V51.0829H30.0977V50.7539ZM29.399 50.9184V56.0763H29.728V50.9184H29.399ZM29.399 56.0763C29.399 56.3213 29.3418 56.4508 29.2622 56.524C29.1795 56.6 29.0368 56.6487 28.7898 56.6487V56.9776C29.0678 56.9776 29.312 56.925 29.4848 56.7662C29.6608 56.6044 29.728 56.3655 29.728 56.0763H29.399ZM28.7898 56.6487H26.9201V56.9776H28.7898V56.6487ZM26.9201 56.6487C26.6783 56.6487 26.538 56.6002 26.4563 56.5245C26.3773 56.4512 26.3201 56.3213 26.3201 56.0763H25.9911C25.9911 56.3655 26.0583 56.604 26.2326 56.7657C26.4042 56.9248 26.646 56.9776 26.9201 56.9776V56.6487ZM26.3201 56.0763V50.9184H25.9911V56.0763H26.3201ZM26.6911 53.6632V55.9382H27.0201V53.6632H26.6911ZM26.6911 55.9382C26.6911 56.0504 26.716 56.1702 26.8141 56.2528C26.9048 56.3291 27.0229 56.3421 27.1227 56.3421V56.0132C27.0838 56.0132 27.0581 56.0101 27.0415 56.0062C27.0258 56.0024 27.0235 55.999 27.026 56.0012C27.0366 56.0101 27.0201 56.0101 27.0201 55.9382H26.6911ZM27.1227 56.3421H28.5872V56.0132H27.1227V56.3421ZM28.5872 56.3421C28.6877 56.3421 28.8054 56.3288 28.8972 56.2554C28.9982 56.1746 29.028 56.0553 29.028 55.9382H28.699C28.699 56.0052 28.6827 56.0057 28.6917 55.9985C28.6926 55.9978 28.6881 56.0019 28.6707 56.0059C28.6527 56.0101 28.626 56.0132 28.5872 56.0132V56.3421ZM29.028 55.9382V53.6632H28.699V55.9382H29.028ZM28.8635 53.4987H26.8556V53.8276H28.8635V53.4987ZM29.028 53.0368V50.9184H28.699V53.0368H29.028ZM28.8635 50.7539H26.8556V51.0829H28.8635V50.7539ZM26.6911 50.9184V53.0368H27.0201V50.9184H26.6911ZM26.8556 53.2013H28.8635V52.8724H26.8556V53.2013Z" fill="#FFA518"/>
</g>
<path d="M41.7061 41.5769C42.6144 41.5676 43.3638 40.8099 43.3799 39.8846C43.3959 38.9593 42.6726 38.2168 41.7643 38.2262C40.856 38.2356 40.1066 38.9933 40.0906 39.9185C40.0745 40.8438 40.7978 41.5863 41.7061 41.5769Z" fill="#FFA518"/>
<path d="M56.6456 41.844C57.5539 41.8346 58.3033 41.077 58.3193 40.1517C58.3354 39.2264 57.6121 38.4839 56.7037 38.4933C55.7954 38.5027 55.0461 39.2603 55.03 40.1856C55.0139 41.1109 55.7373 41.8534 56.6456 41.844Z" fill="#FFA518"/>
<path d="M43.1107 46.8662C44.9976 47.8329 47.0238 48.2796 49.0387 48.1681C51.1041 48.0539 53.0953 47.3568 54.858 46.1365C55.1972 45.9016 55.2679 45.3765 55.0388 44.9532C54.7805 44.4759 54.25 44.3157 53.8725 44.5676C52.3536 45.5813 50.6511 46.1601 48.8887 46.2575C47.139 46.3543 45.3807 45.9739 43.7399 45.1492C43.3011 44.9286 42.8095 45.0948 42.6328 45.5679C42.4572 46.0383 42.6627 46.6367 43.1107 46.8662Z" fill="#FFA518" stroke="#FFA518" stroke-width="0.164474"/>
</svg>
