<svg width="96" height="102" viewBox="0 0 96 102" fill="none" xmlns="http://www.w3.org/2000/svg">
<g clip-path="url(#clip0_1305_12764)">
<path d="M82.95 43.4387C82.125 36.7444 86.625 30.0502 79.5 25.8849C75.48 23.5345 77.1 33.3229 66.9 39.1246C61.962 41.9332 54.825 41.8023 48 38.5296V72.0006H73.2975C83.565 72.0006 92.295 65.1502 95.0745 55.8304C92.301 55.4079 84.168 53.3297 82.95 43.4387Z" fill="#FFFEFA"/>
<path d="M96 22.5149C96 10.1321 85.7835 0 73.2975 0H48V38.5289C54.825 41.8016 61.962 41.9326 66.9 39.124C77.1 33.3223 75.48 23.5339 79.5 25.8843C86.625 30.0496 82.125 36.7438 82.95 43.438C84.1695 53.3291 92.301 55.4073 95.0745 55.8297C95.6745 53.8155 96 51.6868 96 49.4866V22.5149Z" fill="#3B6683"/>
<path d="M13.0503 43.4387C13.8753 36.7444 9.37528 30.0502 16.5003 25.8849C20.5203 23.5345 18.9003 33.3229 29.1003 39.1246C34.0383 41.9332 41.1753 41.8023 48.0003 38.5296V72.0006H22.7028C12.4353 72.0006 3.70528 65.1502 0.925781 55.8304C3.69928 55.4079 11.8323 53.3297 13.0503 43.4387Z" fill="#FFFEFA"/>
<path d="M0 22.5149C0 10.1321 10.2165 0 22.7025 0H48V38.5289C41.175 41.8016 34.038 41.9326 29.1 39.124C18.9 33.3223 20.52 23.5339 16.5 25.8843C9.375 30.0496 13.875 36.7438 13.05 43.438C11.8305 53.3291 3.699 55.4073 0.9255 55.8297C0.324 53.8155 0 51.6868 0 49.4851V22.5134V22.5149Z" fill="#3B6683"/>
<path d="M64.2 16.7349C66.5196 16.7349 68.4 14.87 68.4 12.5696C68.4 10.2692 66.5196 8.4043 64.2 8.4043C61.8804 8.4043 60 10.2692 60 12.5696C60 14.87 61.8804 16.7349 64.2 16.7349Z" fill="#FFFEFA"/>
<path d="M32.0984 16.7349C34.418 16.7349 36.2984 14.87 36.2984 12.5696C36.2984 10.2692 34.418 8.4043 32.0984 8.4043C29.7788 8.4043 27.8984 10.2692 27.8984 12.5696C27.8984 14.87 29.7788 16.7349 32.0984 16.7349Z" fill="#FFFEFA"/>
<path d="M38.4648 23.4433C38.4648 20.4249 43.1073 20.1289 48.0003 20.1289C52.8933 20.1289 57.5358 20.4249 57.5358 23.4433C57.5358 26.4616 52.8933 31.0583 48.0003 31.0583C43.1073 31.0583 38.4648 26.4616 38.4648 23.4433Z" fill="#FFFEFA"/>
<path d="M43.9258 63.2521C43.9258 61.9639 45.9088 61.8359 47.9983 61.8359C50.0878 61.8359 52.0708 61.9624 52.0708 63.2521C52.0708 64.5419 50.0878 66.504 47.9983 66.504C45.9088 66.504 43.9258 64.5404 43.9258 63.2521Z" fill="#693413"/>
<path d="M64.1992 58.7603C66.2703 58.7603 67.9492 57.0952 67.9492 55.0413C67.9492 52.9873 66.2703 51.3223 64.1992 51.3223C62.1282 51.3223 60.4492 52.9873 60.4492 55.0413C60.4492 57.0952 62.1282 58.7603 64.1992 58.7603Z" fill="#693413"/>
<path d="M32.1016 58.7603C34.1726 58.7603 35.8516 57.0952 35.8516 55.0413C35.8516 52.9873 34.1726 51.3223 32.1016 51.3223C30.0305 51.3223 28.3516 52.9873 28.3516 55.0413C28.3516 57.0952 30.0305 58.7603 32.1016 58.7603Z" fill="#693413"/>
<path d="M48.5328 65.0078H47.6328V71.9995H48.5328V65.0078Z" fill="#693413"/>
</g>
<path d="M91.6337 84.1992C91.7478 84.1992 91.8374 84.2326 91.9025 84.2992C91.9677 84.3659 92.0003 84.4576 92.0003 84.5742V87.8742C92.0003 87.9909 91.9677 88.0826 91.9025 88.1492C91.8374 88.2159 91.7478 88.2492 91.6337 88.2492H87.5283C87.4468 88.2492 87.4061 88.2909 87.4061 88.3742V101.324C87.4061 101.441 87.3735 101.533 87.3083 101.599C87.2431 101.666 87.1536 101.699 87.0395 101.699H83.1784C83.0644 101.699 82.9748 101.666 82.9096 101.599C82.8444 101.533 82.8119 101.441 82.8119 101.324V88.3742C82.8119 88.2909 82.7711 88.2492 82.6897 88.2492H78.7064C78.5924 88.2492 78.5028 88.2159 78.4376 88.1492C78.3724 88.0826 78.3398 87.9909 78.3398 87.8742V84.5742C78.3398 84.4576 78.3724 84.3659 78.4376 84.2992C78.5028 84.2326 78.5924 84.1992 78.7064 84.1992H91.6337Z" fill="#3B6683"/>
<path d="M70.2448 102C68.8926 102 67.6952 101.725 66.6525 101.175C65.6261 100.608 64.8279 99.825 64.2576 98.825C63.6874 97.8083 63.4023 96.6333 63.4023 95.3V90.6C63.4023 89.3 63.6874 88.15 64.2576 87.15C64.8279 86.15 65.6261 85.375 66.6525 84.825C67.6952 84.275 68.8926 84 70.2448 84C71.6133 84 72.8107 84.275 73.8371 84.825C74.8797 85.375 75.6861 86.15 76.2564 87.15C76.8266 88.15 77.1117 89.3 77.1117 90.6V95.3C77.1117 96.6333 76.8266 97.8083 76.2564 98.825C75.6861 99.825 74.8797 100.608 73.8371 101.175C72.8107 101.725 71.6133 102 70.2448 102ZM70.2448 97.975C70.929 97.975 71.4748 97.75 71.8821 97.3C72.3057 96.8333 72.5174 96.2167 72.5174 95.45V90.55C72.5174 89.7833 72.3057 89.175 71.8821 88.725C71.4748 88.2583 70.929 88.025 70.2448 88.025C69.5768 88.025 69.0311 88.2583 68.6075 88.725C68.2002 89.175 67.9966 89.7833 67.9966 90.55V95.45C67.9966 96.2167 68.2002 96.8333 68.6075 97.3C69.0311 97.75 69.5768 97.975 70.2448 97.975Z" fill="#3B6683"/>
<path d="M54.819 102C53.4668 102 52.2694 101.725 51.2267 101.175C50.2004 100.608 49.4021 99.825 48.8319 98.825C48.2617 97.8083 47.9766 96.6333 47.9766 95.3V90.6C47.9766 89.3 48.2617 88.15 48.8319 87.15C49.4021 86.15 50.2004 85.375 51.2267 84.825C52.2694 84.275 53.4668 84 54.819 84C56.1875 84 57.3849 84.275 58.4113 84.825C59.4539 85.375 60.2604 86.15 60.8306 87.15C61.4008 88.15 61.6859 89.3 61.6859 90.6V95.3C61.6859 96.6333 61.4008 97.8083 60.8306 98.825C60.2604 99.825 59.4539 100.608 58.4113 101.175C57.3849 101.725 56.1875 102 54.819 102ZM54.819 97.975C55.5032 97.975 56.049 97.75 56.4563 97.3C56.8799 96.8333 57.0917 96.2167 57.0917 95.45V90.55C57.0917 89.7833 56.8799 89.175 56.4563 88.725C56.049 88.2583 55.5032 88.025 54.819 88.025C54.151 88.025 53.6053 88.2583 53.1817 88.725C52.7744 89.175 52.5708 89.7833 52.5708 90.55V95.45C52.5708 96.2167 52.7744 96.8333 53.1817 97.3C53.6053 97.75 54.151 97.975 54.819 97.975Z" fill="#3B6683"/>
<path d="M34.5502 101.699C34.4361 101.699 34.3465 101.666 34.2813 101.599C34.2162 101.533 34.1836 101.441 34.1836 101.324V84.5742C34.1836 84.4576 34.2162 84.3659 34.2813 84.2992C34.3465 84.2326 34.4361 84.1992 34.5502 84.1992H38.4112C38.5253 84.1992 38.6149 84.2326 38.6801 84.2992C38.7452 84.3659 38.7778 84.4576 38.7778 84.5742V97.5492C38.7778 97.6326 38.8185 97.6742 38.9 97.6742H46.4511C46.5651 97.6742 46.6547 97.7076 46.7199 97.7742C46.7851 97.8409 46.8177 97.9326 46.8177 98.0492V101.324C46.8177 101.441 46.7851 101.533 46.7199 101.599C46.6547 101.666 46.5651 101.699 46.4511 101.699H34.5502Z" fill="#3B6683"/>
<path d="M26.7376 84.1992C27.8943 84.1992 28.9125 84.4409 29.7923 84.9242C30.672 85.3909 31.3481 86.0659 31.8206 86.9492C32.3093 87.8159 32.5537 88.8159 32.5537 89.9492C32.5537 91.0659 32.3012 92.0492 31.7961 92.8992C31.2911 93.7492 30.5824 94.4076 29.6701 94.8742C28.7578 95.3409 27.707 95.5742 26.5177 95.5742H23.9273C23.8459 95.5742 23.8051 95.6159 23.8051 95.6992V101.324C23.8051 101.441 23.7726 101.533 23.7074 101.599C23.6422 101.666 23.5526 101.699 23.4386 101.699H19.5775C19.4635 101.699 19.3739 101.666 19.3087 101.599C19.2435 101.533 19.2109 101.441 19.2109 101.324V84.5742C19.2109 84.4576 19.2435 84.3659 19.3087 84.2992C19.3739 84.2326 19.4635 84.1992 19.5775 84.1992H26.7376ZM25.9801 91.8242C26.5828 91.8242 27.0634 91.6659 27.4219 91.3492C27.7966 91.0159 27.9839 90.5826 27.9839 90.0492C27.9839 89.4992 27.7966 89.0576 27.4219 88.7242C27.0634 88.3909 26.5828 88.2242 25.9801 88.2242H23.9273C23.8459 88.2242 23.8051 88.2659 23.8051 88.3492V91.6992C23.8051 91.7826 23.8459 91.8242 23.9273 91.8242H25.9801Z" fill="#3B6683"/>
<path d="M10.818 101.9C9.44951 101.9 8.25208 101.675 7.22572 101.225C6.19935 100.758 5.40107 100.1 4.83087 99.25C4.27696 98.4 4 97.4167 4 96.3V95.95C4 95.8333 4.03258 95.7417 4.09775 95.675C4.16292 95.6083 4.25252 95.575 4.36656 95.575H8.15434C8.26838 95.575 8.35798 95.6083 8.42314 95.675C8.48831 95.7417 8.52089 95.8333 8.52089 95.95V96.1C8.52089 96.5667 8.75712 96.9833 9.22957 97.35C9.71832 97.7 10.3618 97.875 11.1601 97.875C11.7629 97.875 12.1946 97.75 12.4553 97.5C12.716 97.2333 12.8463 96.9417 12.8463 96.625C12.8463 96.2583 12.6834 95.9833 12.3575 95.8C12.0317 95.6167 11.4371 95.3917 10.5736 95.125L9.86494 94.925C8.25208 94.425 6.89989 93.7583 5.80836 92.925C4.71683 92.0917 4.17106 90.8833 4.17106 89.3C4.17106 88.25 4.44802 87.325 5.00193 86.525C5.55584 85.7083 6.31339 85.0833 7.27459 84.65C8.25208 84.2167 9.34362 84 10.5492 84C11.8199 84 12.9685 84.2417 13.9948 84.725C15.0375 85.2083 15.8521 85.8917 16.4386 86.775C17.0414 87.6583 17.3427 88.6667 17.3427 89.8V90.025C17.3427 90.1417 17.3102 90.2333 17.245 90.3C17.1798 90.3667 17.0902 90.4 16.9762 90.4H13.1884C13.0744 90.4 12.9848 90.3667 12.9196 90.3C12.8544 90.2333 12.8219 90.1417 12.8219 90.025V90C12.8219 89.5 12.6019 89.05 12.162 88.65C11.7222 88.2333 11.1275 88.025 10.3781 88.025C9.8568 88.025 9.44136 88.1333 9.13183 88.35C8.83858 88.5667 8.69195 88.8667 8.69195 89.25C8.69195 89.55 8.79785 89.8083 9.00964 90.025C9.23772 90.225 9.57984 90.425 10.036 90.625C10.4922 90.8083 11.1927 91.05 12.1376 91.35C12.2679 91.4 12.8381 91.5833 13.8482 91.9C14.8746 92.2 15.7299 92.7583 16.4141 93.575C17.0984 94.375 17.4405 95.35 17.4405 96.5C17.4405 97.6167 17.1635 98.5833 16.6096 99.4C16.0557 100.2 15.2819 100.817 14.2881 101.25C13.2943 101.683 12.1376 101.9 10.818 101.9Z" fill="#3B6683"/>
<defs>
<clipPath id="clip0_1305_12764">
<rect width="96" height="72" fill="white"/>
</clipPath>
</defs>
</svg>
