<svg width="64" height="48" viewBox="0 0 64 48" fill="none" xmlns="http://www.w3.org/2000/svg">
<g clip-path="url(#clip0_1318_17788)">
<g clip-path="url(#clip1_1318_17788)">
<path d="M8.7 28.9584C9.25 24.4956 6.25 20.0328 11 17.256C13.68 15.689 12.6 22.2146 19.4 26.0824C22.692 27.9548 27.45 27.8675 32 25.6857V47.9998H15.135C8.29 47.9998 2.47 43.4328 0.616999 37.2196C2.466 36.938 7.888 35.5525 8.7 28.9584Z" fill="#D14535"/>
<path d="M0 15.0099C0 6.75471 6.811 0 15.135 0H32V25.686C27.45 27.8678 22.692 27.955 19.4 26.0826C12.6 22.2149 13.68 15.6893 11 17.2562C6.25 20.0331 9.25 24.4959 8.7 28.9587C7.887 35.5527 2.466 36.9382 0.616999 37.2198C0.216997 35.877 0 34.4579 0 32.9911V15.0099Z" fill="#FFFEFA"/>
<path d="M55.2998 28.9584C54.7498 24.4956 57.7498 20.0328 52.9998 17.256C50.3198 15.689 51.3998 22.2146 44.5998 26.0824C41.3078 27.9548 36.5498 27.8675 31.9998 25.6857V47.9998H48.8648C55.7098 47.9998 61.5298 43.4328 63.3828 37.2196C61.5338 36.938 56.1118 35.5525 55.2998 28.9584Z" fill="#D14535"/>
<path d="M64 15.0099C64 6.75471 57.189 0 48.865 0H32V25.686C36.55 27.8678 41.308 27.955 44.6 26.0826C51.4 22.2149 50.32 15.6893 53 17.2562C57.75 20.0331 54.75 24.4959 55.3 28.9587C56.113 35.5527 61.534 36.9382 63.383 37.2198C63.784 35.877 64 34.4579 64 32.9901V15.0089V15.0099Z" fill="#FFFEFA"/>
<path d="M21.2 11.1572C19.6536 11.1572 18.4 9.91399 18.4 8.38038C18.4 6.84676 19.6536 5.60352 21.2 5.60352C22.7464 5.60352 24 6.84676 24 8.38038C24 9.91399 22.7464 11.1572 21.2 11.1572Z" fill="#693413"/>
<path d="M42.5984 11.1572C41.052 11.1572 39.7984 9.91399 39.7984 8.38038C39.7984 6.84676 41.052 5.60352 42.5984 5.60352C44.1448 5.60352 45.3984 6.84676 45.3984 8.38038C45.3984 9.91399 44.1448 11.1572 42.5984 11.1572Z" fill="#693413"/>
<path d="M38.3555 15.6295C38.3555 13.6173 35.2605 13.4199 31.9985 13.4199C28.7365 13.4199 25.6415 13.6173 25.6415 15.6295C25.6415 17.6417 28.7365 20.7062 31.9985 20.7062C35.2605 20.7062 38.3555 17.6417 38.3555 15.6295Z" fill="#693413"/>
<path d="M34.7148 42.1687C34.7148 41.3099 33.3928 41.2246 31.9998 41.2246C30.6068 41.2246 29.2848 41.3089 29.2848 42.1687C29.2848 43.0286 30.6068 44.3367 31.9998 44.3367C33.3928 44.3367 34.7148 43.0276 34.7148 42.1687Z" fill="#FFFEFA"/>
<path d="M21.1992 39.1735C19.8185 39.1735 18.6992 38.0635 18.6992 36.6942C18.6992 35.3249 19.8185 34.2148 21.1992 34.2148C22.5799 34.2148 23.6992 35.3249 23.6992 36.6942C23.6992 38.0635 22.5799 39.1735 21.1992 39.1735Z" fill="#FFFEFA"/>
<path d="M42.6016 39.1735C41.2208 39.1735 40.1016 38.0635 40.1016 36.6942C40.1016 35.3249 41.2208 34.2148 42.6016 34.2148C43.9823 34.2148 45.1016 35.3249 45.1016 36.6942C45.1016 38.0635 43.9823 39.1735 42.6016 39.1735Z" fill="#FFFEFA"/>
<path d="M31.6461 43.3379H32.2461V47.999H31.6461V43.3379Z" fill="#FFFEFA"/>
</g>
</g>
<defs>
<clipPath id="clip0_1318_17788">
<rect width="64" height="48" fill="white"/>
</clipPath>
<clipPath id="clip1_1318_17788">
<rect width="64" height="48" fill="white" transform="matrix(-1 0 0 1 64 0)"/>
</clipPath>
</defs>
</svg>
