<svg width="868" height="868" viewBox="0 0 868 868" fill="none" xmlns="http://www.w3.org/2000/svg">
<circle cx="434" cy="434" r="434" fill="#F5D690"/>
<g clip-path="url(#clip0_2395_15929)">
<path d="M689.375 83.1495C683.36 86.5337 675.429 86.7563 668.567 87.3797C657.027 88.4039 656.536 108.442 654.531 120.465C652.526 132.487 642.501 137.43 642.501 137.43C631.451 136.183 630.56 157.379 620.802 154.574C610.999 151.724 608.192 164.014 598.701 162.767C589.255 161.52 581.68 176.66 568.09 179.154C554.501 181.692 553.164 169.936 551.515 162.589C549.867 155.242 557.441 150.522 561.719 144.822C565.996 139.167 575.442 132.755 580.166 129.905C584.889 127.055 581.814 124.695 580.166 113.563C578.517 102.43 579.453 100.338 576.155 92.2779C572.858 84.2182 554.144 84.2182 545.366 78.7856C536.633 73.3531 534.94 78.7856 527.855 86.0884C520.771 93.4356 520.281 106.438 513.909 102.43C507.537 98.4229 496.844 99.5806 493.324 94.3707C489.759 89.1609 484.323 82.7932 492.611 78.7411C500.898 74.7335 500.185 71.1712 494.972 67.3863C489.759 63.6013 484.813 59.8164 476.526 57.4563C468.238 55.0963 456.876 46.5913 446.227 48.7287C435.578 50.8661 437.761 55.7197 439.365 62.6662C440.924 69.6127 463.649 63.2896 463.025 67.698C462.401 72.1063 447.252 77.4943 433.662 82.2144C420.072 86.9344 420.072 81.591 409.378 91.3428C398.64 101.139 391.377 97.0425 382.555 99.8478C373.732 102.698 364.553 114.364 365.801 122.246C367.049 130.127 383.178 130.439 392.313 136.139C401.447 141.794 409.378 139.924 410.626 150.343C411.873 160.763 416.953 162.322 420.384 161.075C423.859 159.828 420.072 154.752 426.711 145.935C433.35 137.118 455.45 131.419 462.044 116.279C468.684 101.139 481.917 97.9776 487.308 98.601C492.7 99.2244 493.947 110.579 495.195 118.461C496.443 126.342 501.522 126.031 505.309 120.019C509.097 114.008 517.295 115.611 520.459 118.773C523.622 121.934 523.934 126.654 523.311 138.009C522.687 149.364 534.673 149.364 531.509 156.088C528.346 162.812 508.785 163.257 494.259 163.88C479.734 164.504 482.897 172.074 484.813 184.052C486.685 196.03 494.259 196.03 481.026 208.632C467.792 221.233 457.054 199.815 445.024 208.632C433.038 217.448 401.491 243.943 385.05 255.921C368.653 267.9 355.063 305.259 355.553 320.444C356.043 335.583 343.701 341.728 329.977 330.863C316.253 319.998 311.976 305.304 303.956 302.498C295.891 299.649 269.379 304.858 262.295 312.428C255.21 319.998 243.848 333.713 239.571 338.433C235.293 343.153 240.061 367.778 253.784 372.008C267.508 376.283 278.38 378.153 287.871 368.223C297.361 358.293 312.511 368.223 304.936 379.578C297.361 390.933 313.134 392.803 318.838 396.632C324.497 400.417 323.249 407.364 323.873 419.342C324.497 431.32 339.022 437.643 349.76 426.912C360.499 416.181 378.143 425.665 392.045 427.535C405.947 429.45 407.195 418.719 426.755 423.127C446.316 427.535 443.821 431.32 457.678 448.375C471.58 465.429 484.189 445.837 499.339 456.969C514.488 468.101 498.715 488.095 524.603 493.794C550.49 499.494 559.937 493.794 568.18 500.117C576.378 506.44 580.789 520.957 602.89 526.612C624.99 532.312 614.252 555.645 598.478 574.57C582.705 593.494 587.116 613.042 578.918 637.043C570.719 661 532.222 678.678 520.86 685.001C509.498 691.324 503.171 710.872 503.795 726.012C504.418 741.152 486.729 741.152 476.035 748.722C465.297 756.292 465.297 790.98 465.297 814.936C465.297 838.893 464.673 842.678 450.148 836.399C435.622 830.076 431.211 789.733 431.211 789.733V764.485C431.211 739.237 407.239 718.442 399.041 690.656C390.842 662.915 414.814 633.259 395.253 615.581C375.693 597.903 352.969 597.279 353.191 578.978C353.414 560.677 351.053 558.183 340.314 543.667C329.576 529.15 333.363 524.742 334.656 513.387C335.903 502.032 332.784 502.032 334.032 495.086C335.279 488.139 345.394 478.031 350.429 471.752C355.464 465.429 353.592 456.613 344.77 450.958C335.948 445.302 318.882 456.657 307.52 447.796C296.158 438.979 295.846 412.173 288.895 410.882C281.944 409.635 273.434 408.032 269.647 403C265.859 397.924 256.057 393.56 247.858 393.872C239.66 394.183 214.084 399.215 202.722 385.99C191.36 372.72 195.771 362.969 186.949 350.99C178.126 339.012 176.21 317.549 170.24 317.237C164.225 316.926 168.992 325.119 168.056 335.539C167.121 345.959 174.072 363.28 166.14 358.872C158.254 354.464 149.743 325.431 149.743 325.431L148.496 310.914C147.248 296.398 144.708 290.743 138.381 281.258C132.054 271.818 124.48 248.44 130.183 234.592C135.886 220.699 138.381 210.012 147.872 190.419C157.318 170.871 164.937 172.118 169.349 167.086C173.76 162.055 173.76 149.408 164.269 144.377C154.778 139.3 161.106 127.99 151.036 119.752C147.961 117.259 143.104 116.68 137.847 116.68C159.992 96.0183 184.32 77.6724 210.386 61.9983C213.193 62.5326 215.599 62.9779 217.47 63.1115C229.768 64.0466 250.131 68.7667 272.365 62.8888C279.494 61.0186 285.375 52.7363 293.663 52.2465C301.951 51.7566 318.259 65.1598 319.863 58.8813C321.422 52.5582 306.273 49.4411 311.664 42.1829C317.011 34.9248 330.913 33.6779 352.077 35.8599C373.242 38.0863 468.594 27.8892 474.075 29.3141C479.511 30.739 471.936 35.6817 478.575 38.3089C485.214 40.8916 491.809 32.8764 498.225 35.0138C504.641 37.1512 497.289 38.5761 502.502 43.6969C504.953 46.146 512.84 20.1857 532.846 20.5865C538.505 20.6755 544.342 18.5827 550.758 16C568.402 20.8982 585.601 26.9096 602.31 33.9006C633.411 46.9475 662.685 63.5568 689.598 83.1495H689.375Z" fill="#FFF7E6" fill-opacity="0.5"/>
<path d="M410.405 357.001C410.405 357.001 384.829 343.286 367.808 344.711C350.788 346.136 342.233 353.216 347 357.001C351.768 360.786 357.872 358.426 366.873 367.866C375.873 377.351 383.448 358.426 394.81 362.211C406.172 365.996 409.469 362.211 410.45 357.001H410.405Z" fill="#FFF7E6" fill-opacity="0.5"/>
<path d="M435.534 365.507C435.534 365.507 410.582 368.802 407.196 379.222C403.81 389.641 418.023 377.351 429.386 383.007C440.748 388.662 449.258 386.302 450.684 379.222C452.11 372.142 447.119 362.924 435.534 365.507Z" fill="#FFF7E6" fill-opacity="0.5"/>
<path d="M865.065 380.469C860.609 396.589 860.342 407.944 848.757 405.494C829.865 401.531 823.627 406.073 782.188 390.622C740.706 375.17 770.203 344.98 757.949 319.91C745.741 294.796 724.309 301.342 728.675 263.18C733.042 224.975 767.975 228.27 759.241 198.836C754.875 184.097 762.227 170.293 770.693 160.141C821.042 221.813 854.772 297.512 865.02 380.514L865.065 380.469Z" fill="#FFF7E6" fill-opacity="0.5"/>
<path d="M865.999 479.945C854.815 587.215 804.51 682.863 729.609 752.462C735.981 728.327 755.898 693.817 737.362 654.765C708.935 594.919 773.766 606.763 772.295 570.383C770.825 534.003 762.092 522.381 808.698 507.82C831.868 500.562 851.83 489.385 865.999 479.945Z" fill="#FFF7E6" fill-opacity="0.5"/>
<path d="M783.972 430.252C783.972 430.252 764.545 426.868 755.366 439.96C746.143 453.051 746.143 454.521 744.227 469.037C742.266 483.598 758.307 467.568 767.53 466.632C776.754 465.653 784.016 477.319 790.343 462.269C796.671 447.218 800.057 434.616 784.016 430.252H783.972Z" fill="#FFF7E6" fill-opacity="0.5"/>
</g>
<defs>
<clipPath id="clip0_2395_15929">
<rect width="738" height="823.115" fill="white" transform="translate(128 16)"/>
</clipPath>
</defs>
</svg>
