<svg width="80" height="80" viewBox="0 0 80 80" fill="none" xmlns="http://www.w3.org/2000/svg">
<rect width="80" height="80" fill="#D4DDFF"/>
<g clip-path="url(#clip0_2393_15280)">
<path d="M26.0503 61.5304C26.2203 63.1104 23.6503 61.0204 22.7003 60.6404C18.2503 58.8604 9.18029 53.6804 9.00029 48.2904C8.85029 43.7104 16.2803 33.6204 18.0703 28.3104C19.8603 23.0004 20.4003 14.9704 23.8603 10.0904C27.8703 4.43039 31.7703 17.6404 33.5403 19.7904C34.7503 21.2704 41.1303 19.9104 42.5403 19.2704C44.8003 18.2504 49.3703 6.64039 53.7703 7.00039C57.8303 7.34039 56.8703 18.9004 57.6503 21.6704C58.0603 23.1204 65.3703 32.1604 66.9503 34.8704C68.6703 37.8304 72.2903 43.8504 71.4203 47.1504C70.8803 49.2004 65.6103 53.5404 63.7703 55.0004C62.1903 56.2504 59.0403 58.5204 58.0403 59.5204C57.9603 59.7404 46.8803 63.9204 46.5403 62.0204L46.9203 60.7304C56.9503 54.6304 50.7303 42.9104 43.8103 36.9304C42.4003 35.2304 41.3403 33.2904 40.8503 31.1404C40.9803 29.1904 38.1203 17.2704 35.8903 24.0104C35.7003 31.3204 33.7503 36.1604 28.9903 41.8404C26.3003 46.5704 22.5603 53.6304 24.5703 59.0104L26.0503 61.5104V61.5304Z" fill="#809AEB"/>
<path d="M46.5505 62.0295C46.4805 62.4695 46.3005 62.8695 45.9805 63.1695C45.2105 63.8995 35.3305 64.7795 33.6105 64.7195C31.1205 64.6295 25.7705 64.3395 25.5505 61.5295C25.4605 61.4695 24.1205 60.1095 24.0505 60.0295C20.6205 55.6095 25.7105 45.6895 28.1305 41.3595C29.6905 38.5595 32.7605 35.4795 33.7605 32.4895C34.8205 29.3095 33.8405 23.8595 36.0305 21.7595C37.2605 20.5795 38.9905 21.1695 39.7805 22.5495C41.1005 24.8495 41.1605 30.0695 42.6205 33.2095C44.4905 37.2595 48.7005 40.0095 50.7605 43.5695C54.5505 50.1295 54.2605 58.6995 46.5605 62.0195L46.5505 62.0295Z" fill="#FFFEFA"/>
<path d="M58.0491 59.5305C57.9191 60.5205 58.2591 61.6405 57.9491 62.6705C56.9391 65.9805 49.3491 66.6505 46.5491 67.5305C44.3691 68.7605 40.0491 68.5305 37.5491 68.5305C33.5191 68.1005 24.4891 70.4405 24.0291 64.2805C23.9391 63.1305 23.7991 61.4905 25.5491 61.5305C30.8791 65.3405 40.6091 63.3005 46.5491 62.0305C47.8691 61.7505 49.4291 61.7205 50.6591 61.3905C52.9291 60.7805 55.7991 58.8005 58.0491 59.5305Z" fill="#5D8F61"/>
<path d="M37.5501 68.5302C37.7001 66.3302 41.1201 64.8202 43.2401 65.5902C44.3301 65.9802 44.9901 68.8702 43.5601 70.7902C41.4401 73.6302 37.3801 70.9902 37.5501 68.5302Z" fill="#CCAA7C"/>
<path d="M51.4203 12.1304C55.0403 11.2104 56.1903 21.4904 53.5503 22.7904C52.2603 23.4304 45.6003 23.2704 45.0803 21.7104C44.4003 19.6704 49.2603 12.6704 51.4203 12.1304Z" fill="#4069BC"/>
<path d="M25.4 14.0909C28 13.4209 29.52 19.9609 29.99 21.7309C29.86 22.2709 23.42 25.5509 22.87 25.4509C19.96 24.9309 23.06 14.6809 25.4 14.0809V14.0909Z" fill="#4069BC"/>
<path d="M54.9002 35.1396C59.6702 33.7296 61.7002 37.6996 58.0402 39.2696C54.3802 40.8396 51.9102 36.0196 54.9002 35.1396Z" fill="#FFB6C8"/>
<path d="M21.8996 36.1305C26.6096 34.7305 27.6396 41.2805 21.7696 40.5605C18.7196 40.1905 19.9796 36.7005 21.8996 36.1305Z" fill="#FFB6C8"/>
<path d="M48.5507 31.5304C49.8507 35.3404 45.6707 39.1804 45.5207 34.2704C45.4507 31.7904 46.0807 31.1304 48.5507 31.5304Z" fill="#1D160E"/>
<path d="M29.2997 31.5297C31.6597 31.0297 30.7197 39.2897 27.9997 35.8197C26.9997 34.5497 28.2097 31.7697 29.2997 31.5297Z" fill="#130904"/>
<path d="M40.5493 38.0293C44.5793 39.4693 39.3293 42.0893 39.0993 42.8593C38.5293 44.7793 42.9593 51.6993 44.8193 45.0593C45.1993 43.7093 44.5493 41.4393 46.5393 41.5393C47.3193 49.1293 41.7193 53.0493 37.7893 45.0493C36.1793 46.7393 35.6193 50.1593 32.5493 48.7793C29.6993 47.4993 31.1093 39.9593 32.5393 41.5393C32.7593 42.8793 31.9093 46.9393 33.2993 47.5293C34.8893 48.2093 35.8193 44.1693 37.0493 43.5293C37.5693 44.3093 37.8193 43.8393 37.7893 42.1093C39.1693 40.9193 40.0893 39.5593 40.5493 38.0293Z" fill="#362D25"/>
<path d="M40.5496 38.0297C42.5796 41.4397 37.5096 41.0397 38.5496 44.5297C36.3996 44.7897 37.3496 44.2297 37.0496 43.5297C36.0596 41.1897 34.4596 41.8197 33.7696 40.5297C32.2496 37.6797 38.7396 37.3797 40.5496 38.0297Z" fill="#090605"/>
</g>
<defs>
<clipPath id="clip0_2393_15280">
<rect width="62.55" height="65.02" fill="white" transform="translate(9 7)"/>
</clipPath>
</defs>
</svg>
