<svg width="80" height="80" viewBox="0 0 80 80" fill="none" xmlns="http://www.w3.org/2000/svg">
<rect width="80" height="80" fill="#F2C3CB"/>
<g clip-path="url(#clip0_2393_15283)">
<path d="M51.1965 60.2504C50.2342 60.2042 49.8057 60.8843 49.0741 60.8381C48.27 60.7853 48.092 59.8675 47.2484 59.9665C46.7475 62.885 44.0978 64.0207 41.6459 61.6767C40.7429 64.9649 36.373 64.681 35.7073 61.3927C34.8043 61.2937 34.5407 62.2973 33.8289 62.4822C31.3045 63.1293 30.2894 59.5175 29.2744 58.5601C28.2594 57.6027 28.4241 59.1676 27.8112 59.8345C27.1389 60.574 25.5504 61.3465 24.4101 61.0494C23.4808 60.8051 23.2699 59.4383 22.6965 59.6892C21.9121 60.0259 21.9187 62.7331 19.3745 63.0831C15.5385 63.6179 14.741 59.6694 14.9453 57.1273C11.9595 57.9526 11.7816 56.0642 12.1243 53.9711C12.3023 52.8948 14.016 49.5604 13.9764 49.3161C13.9369 49.0519 12.935 49.0586 12.6911 48.3851C12.1045 46.7541 13.3107 44.6742 14.2203 43.2678C14.5762 42.7132 16.0856 41.2275 15.8615 40.937C15.7758 40.8182 15.2353 41.1483 15.2287 40.2041C15.2089 38.078 17.964 35.4104 19.7041 34.0568C20.3434 33.5616 23.4544 31.8382 23.5072 31.6401C23.5928 31.3232 19.3482 26.9917 25.1549 27.5199C24.3047 25.308 24.6606 20.2304 28.4505 22.3961C28.1737 19.055 30.0521 14.2085 33.5586 18.9758C35.4041 14.7962 39.7938 12.7691 40.8089 18.6985C42.9114 15.8791 47.2352 13.7199 46.9122 18.9824C49.4894 17.4307 52.4092 16.8959 52.5147 20.4086C55.9882 19.0484 58.1369 20.5803 55.8037 23.5384C55.0325 24.2449 55.9882 24.8128 57.2603 24.509C58.2358 24.892 57.0098 27.6058 56.4891 28.134C60.4768 28.3453 63.6537 33.5088 63.7328 34.0634L66.0199 36.0575C66.7185 37.0149 67.7336 38.0251 67.2788 39.2731C67.1206 39.7023 66.3099 39.9598 66.389 40.4154C66.5801 41.4586 69.032 43.2942 68.9925 45.5986C68.9661 47.3088 67.3579 47.0975 67.3249 47.3022C67.2327 47.9096 68.0038 48.7482 68.1818 49.4151C68.6761 51.2969 68.775 53.5551 67.7336 55.3247C66.4549 57.4904 64.2601 56.6453 64.0425 56.8301C63.9437 56.916 64.1019 58.7648 64.0425 59.2468C63.7591 61.3795 61.8148 64.8064 58.7697 63.5189C58.2226 63.2878 57.8271 62.0662 57.2537 61.9672C56.621 61.8549 55.9091 63.1821 55.2368 63.334C53.4638 63.75 51.6315 61.538 51.1899 60.2438C51.4315 59.9621 51.4315 59.9621 51.1899 60.2438L51.1965 60.2504Z" fill="#AD6F48"/>
<path d="M67.6757 24.9437C68.2161 25.9209 66.9506 29.4072 66.2981 30.3184C63.1212 34.7622 63.6946 31.4937 60.4518 30.0081C60.1222 29.8562 59.6147 29.4667 59.6411 30.1798C59.6477 30.3713 60.5968 31.0381 59.9509 34.5641C59.3049 38.09 49.8862 37.0402 51.5604 32.5238C51.9031 31.606 55.0339 27.3868 57.3671 27.8357C59.2061 24.0853 65.9092 21.7215 67.6757 24.9437Z" fill="#FBEED1"/>
<path d="M43.6172 32.827C43.1031 30.3641 44.942 28.5351 44.9288 26.2307C41.9892 26.574 41.9694 30.2849 40.4798 32.1667L40.315 27.2211C38.1663 27.1221 38.9177 33.4806 37.8434 33.4873C37.0327 32.4176 37.1645 31.0706 36.5317 29.8425C36.2879 29.3671 36.5449 29.0369 35.7013 29.202C35.7013 30.0009 35.6353 30.8065 35.7803 31.5988C35.8528 31.9818 37.2106 34.5239 36.1956 34.4777C34.7521 34.4117 33.5064 26.2307 36.6701 26.5806C36.8086 26.6731 37.2765 29.2284 38.0016 28.5417C38.3904 26.6929 41.0071 23.4311 41.8046 26.5674C42.6878 26.5278 45.3968 23.1273 46.1086 25.8939C46.1877 26.1977 44.8365 31.3677 44.5993 32.0082C44.4081 32.5166 44.3158 32.959 43.6172 32.8336V32.827Z" fill="#9D5E38"/>
<path d="M51.1972 61.5509C50.2876 58.4674 50.9467 53.6539 51.4345 50.4713C48.7782 49.4412 48.7387 48.2461 48.8969 45.5455C48.9694 44.3636 50.1294 40.7122 49.7274 40.0982C49.5692 39.8604 47.783 39.0153 48.5673 38.1173C48.8442 37.8003 49.5955 38.7842 50.0503 38.7908C50.6765 38.7908 52.3506 36.493 51.7179 38.804C50.9006 41.8017 49.2792 44.4627 49.8855 47.8565C50.2612 49.9629 51.8102 47.7179 52.3572 47.3613C53.8204 46.3973 52.6472 48.6489 52.5945 48.9262C51.8365 53.2049 50.9072 57.6354 52.1859 61.8877C51.797 62.0263 51.3751 61.5707 51.1972 61.5575V61.5509Z" fill="#9A5D38"/>
<path d="M40.5596 47.7634C43.2883 47.255 44.8965 48.6878 42.4578 50.6555C38.925 53.5079 35.4976 48.701 40.5596 47.7634Z" fill="#18110B"/>
<path d="M45.8793 40.9558C47.7117 40.7577 47.9951 44.0724 45.3652 43.6696C44.0338 43.4649 44.2711 41.2661 45.8793 40.9558Z" fill="#1E0E07"/>
<path d="M34.727 42.3621C36.5593 42.164 36.8427 45.4786 34.2129 45.0758C32.8815 44.8712 33.1187 42.6724 34.727 42.3621Z" fill="#1E0E07"/>
<path d="M29.2496 58.5001C30.1592 55.4166 29.5 50.6031 29.0123 47.4205C31.6685 46.3905 31.7081 45.1953 31.5499 42.4948C31.4774 41.3128 30.3173 37.6614 30.7194 37.0474C30.8776 36.8097 32.6638 35.9645 31.8794 35.0665C31.6026 34.7496 30.8512 35.7334 30.3964 35.74C29.7703 35.74 28.0961 33.4422 28.7289 35.7532C29.5462 38.7509 31.1676 41.4119 30.5612 44.8058C30.1855 46.9121 28.6366 44.6671 28.0895 44.3105C26.6263 43.3465 27.7995 45.5981 27.8523 45.8754C28.6102 50.1541 29.5396 54.5846 28.2609 58.8369C28.6498 58.9755 29.0716 58.5199 29.2496 58.5067V58.5001Z" fill="#9A5D38"/>
<path d="M40.2949 50.6626C40.5058 51.4154 40.8156 52.5643 40.084 53.1453C39.7808 53.383 39.3524 53.4557 38.9964 53.3104C38.6405 53.1651 38.3571 52.8152 38.311 52.4388C38.2912 52.2605 38.1726 52.1087 37.9814 52.1087C37.8166 52.1087 37.6321 52.2605 37.6519 52.4388C37.7639 53.3764 38.5878 54.1424 39.5567 54.0367C40.0247 53.9839 40.4663 53.766 40.7629 53.3896C41.0595 53.0133 41.1847 52.5445 41.1913 52.0691C41.1913 51.5342 41.0726 51.006 40.9276 50.4976C40.8156 50.0882 40.1763 50.2599 40.2949 50.6759V50.6626Z" fill="#1A1A1A"/>
<path d="M40.375 50.8536C40.5925 51.6856 40.8891 52.709 41.7196 53.125C42.3985 53.4683 43.4135 53.3957 43.7694 52.6298C43.8485 52.4713 43.8156 52.2732 43.6508 52.1808C43.5058 52.0949 43.2751 52.1345 43.2026 52.2996C43.1828 52.3392 43.163 52.3789 43.1433 52.4119C43.1103 52.4647 43.163 52.3921 43.1169 52.4449C43.0971 52.4647 43.0708 52.4911 43.051 52.5109C43.0246 52.5373 43.018 52.5373 43.051 52.5109C43.0378 52.5175 43.0246 52.5307 43.0114 52.5373C42.9785 52.5571 42.9521 52.5769 42.9192 52.5901C42.8599 52.6232 42.9521 52.5835 42.8796 52.6034C42.8467 52.61 42.8203 52.6232 42.7873 52.6298C42.7742 52.6298 42.6555 52.6562 42.7148 52.6496C42.6489 52.6562 42.583 52.6628 42.5171 52.6562C42.4776 52.6562 42.438 52.6562 42.3985 52.6496C42.3787 52.6496 42.3721 52.6496 42.3985 52.6496C42.3787 52.6496 42.3523 52.643 42.3326 52.6364C42.1678 52.6034 42.1019 52.5769 41.9701 52.4977C41.891 52.4515 41.8975 52.4515 41.825 52.3921C41.7525 52.3326 41.6932 52.26 41.6339 52.194C41.5284 52.0619 41.4428 51.91 41.3703 51.7582C41.2055 51.4148 41.1132 51.0385 41.0209 50.6753C40.9155 50.2659 40.2761 50.4376 40.3882 50.8536H40.375Z" fill="#1A1A1A"/>
</g>
<defs>
<clipPath id="clip0_2393_15283">
<rect width="57" height="49" fill="white" transform="translate(12 15)"/>
</clipPath>
</defs>
</svg>
