<svg width="80" height="80" viewBox="0 0 80 80" fill="none" xmlns="http://www.w3.org/2000/svg">
<rect width="80" height="80" fill="#D4E7F7"/>
<g clip-path="url(#clip0_2393_15279)">
<path d="M35.6021 64.3892C34.1612 64.6263 33.0035 63.7598 32.7607 62.3455C32.5583 62.1983 30.8745 64.6917 28.195 63.8987C26.6083 63.4246 26.4383 60.8249 26.2845 60.7186C25.5883 60.2036 24.0421 62.4681 22.4474 61.1192C20.5612 59.5251 21.4435 56.8273 20.8364 55.8054C20.464 55.1759 19.3388 55.4212 18.8774 54.4892C17.7926 52.282 18.9907 50.418 18.5455 49.1427C18.3107 48.4642 17.2745 48.4724 17.0397 47.7857C16.6674 46.6902 17.2583 44.8999 16.9831 43.8453C16.8697 43.4202 16.0116 43.4529 15.8255 42.897C14.935 40.3218 17.1126 37.8284 17.3797 35.3841C12.8383 35.7029 15.8983 32.531 17.3797 30.6671C17.6955 30.2747 18.4969 30.1847 18.6021 29.7842C19.1364 27.6259 18.1245 24.0371 18.165 21.6827C18.1893 20.1212 18.7235 16.4179 19.185 14.9382C19.6059 13.5975 21.9131 10.1313 23.2812 10.0005C24.714 9.86151 30.8259 15.6985 31.765 17.3744C32.7607 17.8894 32.2669 14.6194 32.4531 13.9899C33.465 10.4746 35.9097 16.6386 36.4116 16.1481C36.3469 14.7911 38.6055 11.2267 39.8602 11.2186C41.4712 11.2022 40.8235 14.5213 41.884 15.3225C42.3131 15.3143 43.8269 12.2895 45.5997 12.126C47.2674 11.9707 46.7412 15.2898 47.5426 15.3143C51.744 12.0606 53.8245 13.8591 51.3959 18.5925C51.7764 18.9685 56.7307 15.2979 57.5969 14.8483C68.9464 8.99495 64.4212 20.9142 61.5069 26.5795C61.4907 28.1328 66.5016 30.152 65.9674 33.4956C65.7002 35.147 64.0326 34.7219 63.9112 35.1879C63.6602 36.1198 64.6964 39.7577 64.3402 41.6789C64.065 43.1586 62.4297 43.3384 62.3164 43.8126C62.0007 45.1615 62.5593 46.8292 61.8145 48.5296C61.2235 49.8703 59.3697 50.4916 59.1512 51.1538C58.6978 52.5517 59.394 54.5546 58.0664 56.1896C57.0788 57.4077 55.9212 56.7128 55.225 57.4077C54.8283 57.8001 54.7635 58.8629 54.3993 59.4351C52.1164 63.0158 50.724 59.6967 49.9874 59.8766C49.4207 60.0156 48.9107 62.4681 47.1783 62.3455C46.4578 62.2964 45.7374 61.4707 45.1788 61.577C44.4826 61.7078 44.094 62.8441 43.6974 63.1548C43.6974 63.5636 42.0783 64.3811 40.864 64.3811C40.095 64.659 39.2774 64.1522 38.4274 62.8523C37.1564 64.986 36.2093 65.501 35.6021 64.3811V64.3892Z" fill="#FEFEFE"/>
<path d="M41.2691 37.8206C40.0224 39.006 39.8605 40.9516 40.7834 43.6657L40.16 43.9192C40.0872 43.2488 39.6743 42.6929 38.9296 42.2515C39.4315 39.9379 39.3991 38.4582 38.8405 37.8287C35.9343 36.8314 33.4815 32.6948 36.9867 31.256C42.6129 28.9424 49.4372 33.8148 41.2691 37.8287V37.8206Z" fill="#060404"/>
<path d="M58.5684 18.2561C62.1869 17.7165 58.5441 26.5783 56.7631 27.1097C54.5046 27.7882 50.9426 25.025 52.0031 22.7033C52.4322 21.755 57.5322 18.4114 58.5684 18.2561Z" fill="#C99284"/>
<path d="M28.5992 23.3997C28.4535 23.5796 24.9968 25.8359 24.7701 25.8931C22.0582 26.6044 22.0259 20.1951 22.2768 18.4457C23.0297 13.2627 27.0935 18.0696 28.4939 20.2605C29.1416 21.2742 29.4573 22.3697 28.5992 23.3997Z" fill="#C99183"/>
<path d="M38.8404 37.8202C39.0509 37.8938 39.5771 37.7221 39.65 37.8202C40.0142 38.2944 39.1804 40.1583 39.2533 40.8695C39.3261 41.6134 40.2895 42.6272 40.2571 43.5509C40.9047 42.1367 39.1966 39.0873 40.4514 38.0082C40.6861 37.8039 41.0909 37.9101 41.269 37.8202C39.6338 39.1282 40.8481 44.9898 42.459 45.423C45.5352 46.2487 47.3161 42.0222 47.3485 39.4552C49.0161 40.4935 48.0123 42.9787 47.1138 44.3357C44.5152 48.2598 40.2571 47.5159 39.65 42.7334C37.7638 44.8344 37.2376 47.5649 33.6838 46.1016C32.1861 45.4884 29.1342 40.3136 31.9595 39.8722C31.7085 42.4637 33.5704 46.6738 36.6466 44.8017C37.8609 44.066 39.6176 39.3163 38.8404 37.8284V37.8202Z" fill="#2D2C2D"/>
<path d="M49.2347 31.3207C51.4285 30.773 51.3071 34.7952 49.5585 34.9832C47.4132 35.2121 47.8018 31.6804 49.2347 31.3207Z" fill="#0A0A0A"/>
<path d="M29.2238 33.635C28.2038 32.5559 29.4748 29.621 30.9319 30.0625C32.6643 30.5938 30.8672 35.3763 29.2238 33.635Z" fill="#2C2B2B"/>
<path d="M43.6977 63.1625C43.3658 63.4241 42.8396 63.8084 42.4835 63.98C43.803 66.6533 46.0049 68.3619 45.3168 71.7464C42.7992 71.7218 41.9249 68.0185 41.0668 66.0075C40.8158 65.4189 40.9777 64.6422 40.8644 64.3888C40.6863 63.9719 38.2416 61.3804 38.0392 61.5275C37.772 62.3695 37.8044 62.95 37.2216 63.5713C37.0354 63.7757 35.6511 64.3397 35.6025 64.3888C33.5868 66.4407 31.0206 72.7764 34.1696 74.624C38.2335 77.0111 38.5492 67.2419 39.4558 66.8413C40.4111 69.0322 42.9854 75.7358 46.1668 73.2015C48.7896 71.1087 46.9682 64.1926 43.7058 63.1544L43.6977 63.1625ZM36.0639 71.5992C35.8777 72.1061 35.8616 73.1443 34.9954 72.9644C34.1292 72.7928 34.6311 71.8363 34.6554 71.4193C34.7849 69.0404 35.9587 66.1056 37.6182 64.3806C37.5292 66.7596 36.8816 69.3674 36.0639 71.591V71.5992Z" fill="#9AADC7"/>
</g>
<defs>
<clipPath id="clip0_2393_15279">
<rect width="51" height="65" fill="white" transform="translate(15 10)"/>
</clipPath>
</defs>
</svg>
