<svg width="80" height="80" viewBox="0 0 80 80" fill="none" xmlns="http://www.w3.org/2000/svg">
<rect width="80" height="80" fill="#E6EBFF"/>
<g clip-path="url(#clip0_2393_15282)">
<path d="M30.5277 37.7732C32.5895 44.0371 28.529 44.5611 28.9319 49.3314C29.1452 51.912 31.1991 53.1945 30.9384 55.955C30.7725 57.7067 29.2005 59.1066 28.9635 60.6706C28.608 63.0401 30.3539 65.4878 28.5527 67.6931C26.0802 70.7195 22.7702 67.5445 20.0606 67.4506C18.4017 67.3959 17.201 68.35 15.7553 68.2561C14.76 68.1857 12.6824 67.2239 11.9398 66.5279C10.4073 65.1046 10.747 63.4545 9.94912 62.2424C9.48304 61.5386 8.3297 61.2884 7.60293 60.6549C4.49838 57.9413 6.85247 56.1271 6.86037 53.2102C6.86037 50.0743 5.88081 49.433 7.33434 45.8905C8.59828 42.8016 9.01697 42.8719 9.78323 39.3216C10.7628 34.7703 12.3111 35.3255 13.7172 32.6588C15.5895 29.1163 14.5309 25.0733 18.1173 20.9834C20.3529 18.434 21.7749 17.2375 24.0342 14.3284C26.6331 10.9971 27.51 11.4115 30.6698 9.55817C31.4835 9.08114 34.0746 7.15738 34.8724 6.87586C35.4807 6.6569 34.3432 8.11144 34.4775 8.43989C35.2595 8.47117 35.8599 9.0264 36.2786 10.1134C44.6048 17.3079 38.5458 23.7517 32.4315 29.4213C30.583 31.4702 29.0741 34.262 30.9463 36.7879L30.5198 37.7654L30.5277 37.7732Z" fill="#494949"/>
<path d="M53.438 10.0118C53.0193 10.7 52.8929 11.3491 52.2452 12.1546C48.7772 16.4322 46.352 16.745 49.03 23.1809C50.7205 27.2552 53.2721 28.4517 54.6308 33.4723C54.8994 34.4185 55.1048 35.2709 54.9784 36.2484C54.6229 39.0558 52.9877 40.6824 50.681 41.6834C51.1392 42.9424 48.1926 44.3266 47.0788 44.5768C45.7517 44.874 39.4162 44.788 38.089 44.397C36.8646 44.0373 33.523 42.5593 33.6968 41.2924L30.537 37.7733C30.2526 36.9053 29.5337 36.2093 29.3757 35.2083C28.1276 27.2943 44.2823 23.2748 38.247 13.5231C36.7935 11.177 34.8818 10.7939 34.4868 8.44781C34.0918 6.10177 36.1299 5.85935 37.9547 5.42924C42.1336 4.45172 48.3585 5.18681 52.1425 7.19659C53.4538 7.89258 53.596 8.54165 53.4459 10.0118H53.438Z" fill="#FDFDFD"/>
<path d="M51.0655 62.7989C50.9945 62.7676 50.8997 62.7598 50.7891 62.7598C50.876 62.7832 50.9629 62.7989 51.0655 62.7989Z" fill="#AC6F48"/>
<path d="M73.1697 50.4664C73.2803 48.7929 74.086 47.0256 73.9912 45.4146C73.9122 43.9601 72.9169 42.3335 72.7905 40.7069C72.5377 37.399 73.8491 35.5925 72.5851 31.9171C71.4792 28.7108 68.9434 27.3579 67.7031 24.6287C65.7519 20.312 67.8374 15.3697 61.6283 13.0471C60.7041 12.703 59.7561 12.8829 58.9741 12.5466C58.0498 12.1478 53.8314 7.66683 53.0414 8.44884C52.994 8.75383 51.9908 11.6082 49.8816 13.1409C45.205 16.527 47.5986 23.5417 52.4411 30.1888C53.8314 31.9093 54.6214 34.8262 54.5819 35.9757C54.5503 37.0627 53.8314 38.7753 53.8314 38.9474L54.2264 46.572C54.2264 46.8692 52.2041 49.2309 51.9513 50.5681C51.5563 52.6795 52.3463 54.1341 52.2673 55.9327C52.1725 58.0754 50.6162 60.4684 51.0665 62.7988C51.1297 62.8223 51.3825 63.5573 51.8644 63.7528C52.836 64.1439 53.9341 64.183 54.8978 64.6756C55.9801 65.2309 56.9043 66.8653 58.0182 66.9904C60.2933 67.2484 62.7027 65.6375 64.7803 65.2387C65.9099 65.0197 67.0712 65.3012 68.1613 65.0666C70.4917 64.5661 71.1237 60.6248 72.9564 59.2563C74.3467 56.441 72.9801 53.5085 73.1697 50.4743V50.4664Z" fill="#494949"/>
<path d="M33.5703 19.0608C35.6874 18.4822 36.4615 21.4225 34.9053 22.7519C32.0456 25.1918 31.6506 19.5926 33.5703 19.0608Z" fill="#070707"/>
<path d="M32.5039 17.8337C31.3585 16.7076 35.5532 13.4232 36.0587 15.3C36.4379 16.7154 33.2702 18.5844 32.5039 17.8337Z" fill="#D19E72"/>
<path d="M52.9235 20.2264C55.0643 19.679 55.1749 23.9253 53.2316 24.113C51.1224 24.3242 50.8854 20.7425 52.9235 20.2264Z" fill="#070707"/>
<path d="M51.8574 15.8774C52.4341 15.2908 55.8388 16.9409 55.4043 18.4033C54.7724 20.5694 50.7514 16.9956 51.8574 15.8774Z" fill="#D0A073"/>
<path d="M43.9581 29.9533C43.7132 31.0403 43.65 32.1664 43.7606 33.3395L43.1681 33.0814C42.6151 32.9094 42.1885 32.6435 41.8805 32.2759C42.6309 30.5242 42.6704 29.4841 41.9832 29.1713C40.9641 28.6005 39.0366 26.3483 40.3795 25.4333C41.2406 24.8468 47.0073 25.0032 47.7183 26.4343C48.9664 28.9367 45.064 29.3434 43.9581 29.9533Z" fill="#070707"/>
<path d="M41.9825 29.172C42.1168 29.2424 42.6382 29.0547 42.7408 29.1876C43.1674 29.7272 42.338 31.1818 42.3696 31.6823C42.3696 31.7761 42.7961 31.8465 43.1674 33.0821C43.0331 33.0821 42.6856 32.7067 42.3696 32.8866C41.8719 33.1525 41.5875 34.1065 40.9397 34.5914C38.5698 36.3587 35.1967 34.9198 34.857 32.1124C34.5173 29.3049 36.9109 33.7233 37.6456 34.0518C39.8575 35.0449 43.041 31.2522 41.9825 29.172Z" fill="#454645"/>
<path d="M43.958 29.9531C43.8395 32.002 43.7684 34.7938 46.4859 34.6374C48.7926 34.5044 48.603 31.5484 49.0928 31.1261C49.5826 30.7039 49.8906 31.1105 49.8906 31.7205C49.9143 34.8094 46.8651 37.2024 44.1397 35.044C43.0891 34.2073 43.4366 34.004 43.1602 33.0812C44.1002 33.0812 42.9785 30.4927 43.9501 29.9531H43.958Z" fill="#3B3B3B"/>
<path d="M52.7735 40.0491L50.6643 41.6835C48.8 42.8957 47.1885 44.3267 44.6448 43.9592C41.643 43.5213 42.4882 43.8888 40.2131 43.9905C38.0012 44.0843 35.2601 43.2476 32.4952 39.7363C32.6848 44.1156 35.3391 45.5858 38.3172 47.0794C39.6365 47.7363 37.0059 49.4568 36.2712 50.317C33.2851 53.8126 30.4413 58.5047 32.7085 62.0081C34.162 64.2525 37.9459 64.1899 39.3837 62.0003L41.5798 57.7305C41.7299 61.5311 46.7224 66.3326 49.4873 62.8136C52.2522 59.2945 50.1351 52.6708 46.4222 48.3463C46.4222 48.3463 56.202 46.0003 52.7814 40.0648L52.7735 40.0491ZM35.9078 60.4284C32.9771 59.9436 37.1876 53.2495 38.096 52.1156C38.5147 51.5917 38.9413 50.9191 39.6049 50.6767C39.4548 52.2955 38.1355 60.796 35.9078 60.4284ZM47.307 60.0609C45.1662 60.5066 43.0807 52.3815 43.5626 50.6767C44.3762 50.4968 44.4631 51.0912 44.8344 51.5682C45.6165 52.5457 49.5268 59.5995 47.307 60.0609Z" fill="#5774CD"/>
</g>
<defs>
<clipPath id="clip0_2393_15282">
<rect width="68" height="64" fill="white" transform="translate(6 5)"/>
</clipPath>
</defs>
</svg>
