<svg width="80" height="80" viewBox="0 0 80 80" fill="none" xmlns="http://www.w3.org/2000/svg">
<rect width="80" height="80" fill="#F5D690"/>
<g clip-path="url(#clip0_2393_15278)">
<path d="M51.3275 19.1349C51.7677 19.8932 51.6967 20.2867 51.1145 20.3296C46.5278 19.235 40.3577 19.5713 43.3398 26.0314C44.2912 25.3017 45.0722 25.13 45.6828 25.5378C46.6059 27.3048 47.5147 27.5409 48.4519 25.6522L49.1477 25.4948C51.0577 27.4765 52.0588 27.6339 52.1369 25.9527C52.7972 25.4376 53.7629 25.1014 53.2587 25.8382L53.4788 27.8843C54.3309 30.9892 54.4942 35.1671 55.0267 38.4938C55.2965 40.6757 55.3888 44.1383 52.996 40.8403C54.48 38.7227 52.8824 37.5137 48.2034 37.2132C48.6649 34.1942 47.2946 33.9223 44.0924 36.3976C43.2972 36.8555 42.6298 36.5979 42.0901 35.625C40.5352 36.7839 40.2441 36.9699 38.8524 35.6393C38.1566 36.4262 37.4679 37.2275 36.7934 38.0502C35.4231 37.6424 29.0045 36.8197 32.7321 39.3522C33.0161 39.8459 32.9167 40.3824 32.4339 40.6901C31.5606 41.0692 26.1147 44.0739 26.7963 45.1756C28.1383 46.0556 27.7264 47.4435 25.5609 49.3322L23.9207 52.7733L23.1326 52.8376C19.3979 46.3489 20.6192 31.1895 22.2877 23.7492C22.4723 22.9337 23.7645 19.5284 23.7432 19.2923C23.729 19.1063 23.2746 18.8129 22.9764 18.8201C22.3516 18.8201 19.4476 22.1825 18.6311 22.8765C16.5508 24.665 10.8777 28.8215 8.19382 28.4423C4.12542 27.8628 6.65308 21.8105 8.00922 19.6643C10.7996 15.2788 18.482 7.29492 23.9278 7.345C27.4211 7.38077 30.3535 12.0667 32.0079 14.7852C35.2882 13.1827 38.6181 13.5619 42.1469 13.4689C44.9018 10.3926 47.7064 5.5851 52.4138 6.02865C56.1059 6.37204 65.9113 12.4387 67.9987 15.6008C69.4046 17.7327 69.646 20.9377 66.5858 21.5601C60.8204 22.7334 54.9202 18.7557 50.866 15.0785C50.0423 15.2574 51.0648 18.5912 51.3275 19.1349Z" fill="#6D6D6D"/>
<path d="M23.1465 52.8307C23.9843 51.6932 24.2967 50.198 25.0564 48.9818C25.383 48.4667 27.1155 46.6639 27.1652 46.4278C27.3143 45.7696 26.3061 45.8268 26.2209 45.4477C25.6458 42.815 32.4406 40.3182 32.4264 39.889C32.4264 39.6887 29.1035 38.1148 32.1424 37.0989C34.1234 36.4336 35.9836 37.5782 36.6297 37.4852C37.1268 37.4137 37.7516 34.5091 39.3775 35.0815C39.8887 35.2603 39.6402 36.1045 40.336 36.0115C41.1029 35.9113 41.607 34.4805 42.6791 35.2102C42.9773 35.4105 42.7643 36.0973 43.4317 36.0043C43.9003 35.9399 44.8305 35.0028 45.5476 34.6808C47.9617 33.6006 49.4953 33.994 48.5439 36.92C50.7165 36.405 56.489 38.1434 53.4998 40.819C54.1104 41.5988 54.7352 41.5988 55.3671 42.0567C55.9565 42.4787 56.2973 43.2872 56.276 43.9525C56.2618 44.4819 54.0749 46.6639 56.5884 45.9699C57.5753 47.7084 57.7244 49.0819 57.0357 50.7059C57.7102 51.221 57.8664 51.7289 57.5185 52.2083L56.9008 52.523C56.4393 52.7305 56.1695 52.659 55.9281 52.2583C56.418 54.8267 55.5376 56.8727 52.6336 56.1716C52.7898 58.7185 51.2703 60.8361 48.9131 58.8973C48.2386 60.9505 46.6907 61.4227 44.9157 60.507C44.1346 63.4473 41.8626 63.3042 40.8331 60.6644C39.697 62.2597 38.3054 62.3169 37.3682 60.5213C36.1966 63.0967 34.3506 64.1985 32.7033 61.344C30.5165 64.7565 28.1024 63.712 28.3509 59.8273C26.0718 60.9362 24.9712 60.1707 24.7298 57.5953L24.389 57.8242C23.8636 55.5421 24.3677 54.9411 23.1536 52.8307H23.1465Z" fill="white"/>
<path d="M56.9009 52.5223C57.753 55.7988 53.713 63.1818 52.0089 66.1579C50.3049 69.134 46.1512 75.9518 44.0283 78.0837C41.9053 80.2156 39.9315 78.2554 38.0428 76.9891C32.881 73.5409 25.2341 64.0904 24.3892 57.8306C24.2401 56.7217 23.9774 54.1605 25.3122 54.089C25.6459 54.5469 24.3963 57.4872 25.653 59.2042C26.647 60.5634 27.8044 58.8536 29.0327 59.0754C28.5428 63.8614 30.8148 63.9544 32.597 60.0197C32.9449 60.0197 34.7341 65.6929 36.9352 59.6978C37.9931 59.3544 38.0002 61.2717 39.1008 61.2717C40.109 61.2717 40.5421 59.1255 41.1101 59.7049C41.2521 59.848 41.7704 62.1158 43.1266 62.123C44.1632 61.5793 44.3123 60.449 44.5182 59.3973C45.2353 59.2542 45.4128 60.1127 45.9737 60.2773C47.5003 60.7351 48.5156 59.2757 48.2316 57.8377C48.5582 57.4299 49.7865 59.2972 50.7948 59.0396C52.229 58.6747 51.9805 56.4785 51.945 55.341C55.9495 56.6716 55.6726 54.0389 55.0407 50.9698C55.3744 50.6121 56.837 52.2862 56.8938 52.5294L56.9009 52.5223Z" fill="#B6C5FF"/>
<path d="M52.719 26.0032C52.0445 30.1168 49.3464 26.0032 49.0056 26.0032C48.7074 26.0104 48.4163 27.4269 47.4436 27.57C45.7892 27.8132 45.3206 25.6956 44.9798 25.6884C44.7526 25.6884 42.7787 28.4785 42.1113 24.5152C41.1173 18.5988 46.3501 18.9779 50.454 19.5431C51.0292 19.6218 53.8692 20.7664 55.0479 21.7752C57.5613 23.9285 55.3532 27.8633 52.719 25.9889V26.0032Z" fill="white"/>
<path d="M56.5955 45.6556C58.2783 41.6421 66.692 38.0365 62.9857 45.0761C61.8141 47.301 60.1882 47.673 58.6475 49.0609C57.8167 49.8049 59.748 50.0195 60.4296 50.3772C62.297 51.3573 63.6531 52.2874 64.7039 54.176C65.2293 55.1204 66.2163 56.6513 64.4696 56.8946C62.4248 57.1807 58.7327 53.7754 57.5185 52.2087C57.2629 51.8796 56.3328 50.8923 56.3115 50.7635C56.2618 50.4845 56.8653 49.9051 56.9292 49.254C57.0854 47.7732 55.921 47.2509 56.5884 45.6627L56.5955 45.6556Z" fill="#B6C5FF"/>
<path d="M34.3006 26.6244C34.4071 27.9121 33.8107 29.3 32.3196 28.7706C31.8013 28.5846 32.0214 27.583 31.0558 27.862C30.7434 27.955 28.3151 32.4692 27.4773 27.8763C27.0939 27.5186 23.5935 31.5463 23.1391 28.6346C22.3154 23.3478 36.9063 15.743 37.098 24.9074C37.1193 25.8016 36.9702 27.4041 35.6993 27.2611C35.1171 27.1967 34.9183 26.5027 34.2935 26.6244H34.3006Z" fill="white"/>
<path d="M32.0361 29.7799C34.5638 29.1218 33.7118 36.1757 31.5036 33.3283C30.6516 32.2266 30.5593 30.1591 32.0361 29.7799Z" fill="#0F100B"/>
<path d="M46.5916 28.2209C48.3737 27.7631 48.6293 32.4561 46.5348 32.263C45.0863 32.127 44.9656 28.643 46.5916 28.2209Z" fill="#070806"/>
<path d="M42.3464 45.9692C41.6293 46.0193 41.04 46.2554 40.5785 46.6703C40.8199 49.1313 40.4436 49.7537 39.4353 48.5518C40.188 46.9565 39.4069 45.9907 37.0852 45.6616C36.0911 45.0821 34.593 44.2808 35.0403 42.85C36.2403 38.994 48.2609 38.7794 44.9664 44.0877C44.228 45.2824 43.383 45.4398 42.3464 45.9764V45.9692Z" fill="#030202"/>
<path d="M37.0843 45.6543C38.9374 45.8045 40.6273 46.2767 39.5622 48.4587C41.2592 48.7663 40.1871 47.5787 40.3078 46.7346C40.4214 45.9548 41.6923 45.8689 42.3526 45.9691C41.9976 46.1551 40.8261 46.6344 40.7835 46.7989C40.2652 49.7321 43.7868 55.8703 45.2353 50.283C45.4696 49.3887 45.1501 47.2353 46.2151 47.2139C47.0671 49.2814 45.5264 53.9602 42.8851 53.4021C41.1811 53.0444 41.1101 51.3418 40.5208 50.1542C40.4072 49.9253 40.3717 49.1169 39.8746 49.7106C39.761 49.8466 39.5551 52.2646 39.0723 53.1231C36.992 56.8075 32.8171 51.5993 33.8324 49.7106C34.3862 48.6876 35.0678 51.6494 35.2737 52.0071C38.0996 56.9076 39.4486 48.7234 39.5622 46.5915C38.5043 46.6487 37.8724 46.1122 37.0843 45.6543Z" fill="#2B1C12"/>
</g>
<defs>
<clipPath id="clip0_2393_15278">
<rect width="63" height="73" fill="white" transform="translate(6 6)"/>
</clipPath>
</defs>
</svg>
