<svg width="914" height="367" viewBox="0 0 914 367" fill="none" xmlns="http://www.w3.org/2000/svg">
<g clip-path="url(#clip0_2342_15337)">
<path d="M35.3867 190.524L193.464 252.275L415.461 207.756L270.927 167L35.3867 190.524Z" fill="#EF98A6"/>
<path d="M565.353 181.703L415.461 207.756L615.979 268.39L787.644 230.222L565.353 181.703Z" fill="#EF98A6"/>
<path d="M193.461 252.275L376.917 309.616L615.976 268.39L415.458 207.756L193.461 252.275Z" fill="#E9798C"/>
<path d="M376.919 309.615L191.991 250.805L4 268.124L184.071 341.961L376.919 309.615Z" fill="#EF98A6"/>
<path d="M847.999 316.966L613.032 268.389L376.918 309.615L578.452 366.999L847.999 316.966Z" fill="#EF98A6"/>
<g clip-path="url(#clip1_2342_15337)">
<path d="M540.071 300.43L540.431 299.34C543.101 298.16 550.341 296.78 552.591 299.19C561.071 308.52 570.931 316.66 584.011 317.41C584.041 315.44 584.771 314.46 586.081 316.44C586.231 316.7 586.941 317.1 587.361 317.9C587.861 318.85 589.571 323.89 589.891 323.97L616.831 324.94C627.401 326.17 638.161 326.25 648.581 328.44C647.561 330.11 644.401 329.39 642.581 329.43C625.671 328.13 608.591 327.13 591.361 326.44C591.671 327.95 591.411 328.95 590.581 329.43C566.011 329.6 538.701 331.49 514.311 329.95C506.121 329.44 499.431 326.67 502.991 317.08C505.191 311.16 511.901 308.3 517.581 306.92L518.391 307.89C518.201 322.28 542.541 312.35 539.401 301.38L540.091 300.42L540.071 300.43Z" fill="#9FB4BC"/>
<path d="M586.069 316.431C584.279 315.031 585.599 317.531 584.609 318.221C583.099 319.271 572.109 315.801 569.959 314.801C565.969 312.951 560.929 308.651 557.569 305.691C556.229 304.501 551.749 299.341 550.729 299.041C547.899 298.201 542.989 299.891 540.079 300.441C538.999 301.281 537.449 299.611 538.079 298.441C555.309 293.061 570.349 296.421 582.059 310.201C583.989 312.471 584.689 314.061 586.069 316.441V316.431Z" fill="#B8CBD2"/>
<path d="M538.069 298.43C538.549 298.74 539.859 299.98 540.069 300.43C543.309 307.47 533.709 315.33 527.319 315.92C520.929 316.51 515.809 313.63 517.569 306.93C519.519 299.52 531.379 294.08 538.069 298.43Z" fill="#5E6D72"/>
<path d="M642.57 329.431C625.28 329.871 607.87 329.311 590.57 329.431L590.07 325.431C591.32 325.501 592.6 325.341 593.85 325.411C609.35 326.261 624.84 327.301 640.35 328.401C641.28 328.471 642.22 328.281 642.57 329.431Z" fill="#829297"/>
</g>
<g clip-path="url(#clip2_2342_15337)">
<path d="M257.84 312.936C232.171 304.084 206.875 294.294 181.208 285.462L176.377 283.397C176.543 278.732 176.268 273.785 175.813 269.051C175.443 265.235 173.258 257.504 173.362 257.141C174.056 257.203 289.888 299.16 289.888 299.16C285.539 303.305 281.074 308.263 278.549 313.344L257.84 312.936Z" fill="#DF566E"/>
<path d="M161.316 318.175C161.277 318.134 160.719 317.537 160.492 317.312C157.302 314.159 155.165 310.615 156.062 306.999L134.742 299.492C134.851 299.007 135.027 298.535 135.128 298.053C137.265 288.067 139.14 280.348 139.44 269.905C139.683 261.415 139.309 252.925 137.457 244.244C137.35 243.918 135.225 236.711 134.902 234.193C134.856 233.856 134.749 233.53 134.919 233.22C139.269 236.006 142.853 239.377 146.846 242.426C149.318 244.317 151.998 246.105 154.504 247.979C156.837 248.245 170.077 245.88 171.039 246.282C172.264 246.8 175.457 265.238 175.828 269.054C176.289 273.789 176.558 278.735 176.392 283.4C176.057 292.98 174.362 302.361 171.745 311.459C171.888 311.62 175.722 312.719 176.369 312.955C180.399 314.42 184.41 316.009 188.439 317.474C187.485 319.614 184.145 321.603 181.356 322.368C179.907 322.766 178.638 322.786 177.165 322.926C176.834 322.955 175.845 323.081 175.808 323.086C174.484 323.23 170.862 322.789 167.745 321.697C164.955 320.723 161.944 318.78 161.33 318.179L161.316 318.175Z" fill="#F9F3EE"/>
<path d="M88.9925 281.317C76.9025 276.926 64.735 272.663 52.654 268.238L60.2506 241.227L139.433 269.898C139.133 280.342 137.259 288.06 135.121 298.047C119.683 292.62 104.361 286.895 88.9925 281.317Z" fill="#F2C3CB"/>
<path d="M161.316 318.174C150.067 321.817 136.171 323.441 123.138 323.373C110.414 323.305 97.116 321.438 84.6533 317.179C81.0225 304.633 83.1255 292.123 88.9934 281.316C104.362 286.894 119.684 292.619 135.122 298.046C135.02 298.533 134.844 299.005 134.736 299.485L156.056 306.992C155.166 310.609 157.297 314.151 160.486 317.304C160.72 317.531 161.27 318.131 161.31 318.167L161.316 318.174Z" fill="#ECE5E0"/>
<path d="M225.179 363.82C217.425 360.395 210.616 356.36 204.037 351.605C192.965 343.6 183.46 333.661 177.131 323.441C176.925 322.872 176.816 322.956 177.149 322.921C178.622 322.781 179.892 322.757 181.34 322.363C184.129 321.599 187.469 319.61 188.423 317.47C206.348 323.985 224.285 330.667 242.277 337.01C244.658 337.849 248.316 339.333 250.64 339.796C252.228 340.113 254.959 340.074 256.655 340.122C253.648 350.221 235.332 367.671 235.26 367.673C233.775 367.748 227.027 364.639 225.172 363.818L225.179 363.82Z" fill="#ECE5E0"/>
<path d="M139.434 269.898L60.2512 241.227L131.151 241.84C132.533 241.933 137.338 243.909 137.444 244.236C139.296 252.917 139.677 261.409 139.427 269.897L139.434 269.898Z" fill="#DF566E"/>
<path d="M250.642 339.797L257.84 312.936L278.549 313.344C274.485 321.519 274.257 331.293 270.859 339.446C270.644 339.954 269.909 340.23 269.884 340.326C265.413 339.863 261.054 340.243 256.657 340.124C254.961 340.075 252.23 340.115 250.642 339.797Z" fill="#E9798C"/>
<path d="M307.888 340.484C310.555 331.574 312.066 322.293 315.825 313.728L329.78 313.704C330.847 315.003 323.129 337.216 322.974 340.5C318.019 340.772 312.912 340.488 307.888 340.484Z" fill="#E9798C"/>
<path d="M302.877 340.428C306.218 329.488 306.791 317.303 313.484 307.54C313.484 307.54 313.826 307.631 314.154 307.719C318.813 309.034 329.677 313.58 329.78 313.705L315.825 313.729C312.065 322.295 310.554 331.576 307.887 340.485C306.236 340.485 304.567 340.685 302.877 340.428Z" fill="#DF566E"/>
<path d="M302.88 340.427C302.712 340.973 302.584 342.28 302.145 342.553C291.535 342.605 280.785 342.588 270.104 342.184C269.897 341.614 269.843 340.479 269.884 340.325C269.911 340.224 270.644 339.953 270.859 339.445C274.257 331.292 274.484 321.523 278.549 313.343C281.074 308.262 285.082 303.537 289.431 299.391L296.846 293.312L304.942 302.401L328.405 294.061C325.371 296.863 321.743 299.284 318.932 302.247C317.79 303.453 315.205 306.457 314.108 307.978C307.415 317.741 306.219 329.492 302.88 340.427Z" fill="#EBE5E0"/>
<path d="M188.423 317.471C184.394 316.006 180.383 314.417 176.353 312.952C179.183 304.05 180.53 294.818 181.206 285.462C206.874 294.294 232.169 304.084 257.838 312.936L250.64 339.798C248.317 339.334 244.658 337.85 242.277 337.012C224.285 330.669 206.348 323.986 188.423 317.471Z" fill="#F2C3CB"/>
<path d="M176.355 312.95C175.707 312.715 171.867 311.614 171.73 311.454C174.347 302.357 176.043 292.976 176.377 283.395L181.208 285.461C180.532 294.816 179.185 304.049 176.355 312.95Z" fill="#E9798C"/>
</g>
</g>
<g clip-path="url(#clip3_2342_15337)">
<path d="M128.981 186.881C126.001 180.089 125.023 171.323 130.612 165.603C132.688 163.48 135.309 162.662 137.117 160.501C138.015 159.116 142.237 158.367 144.069 158.276C154.094 157.828 160.819 164.867 166.352 172.233C167.778 170.894 168.915 170.576 169.768 171.302L168.617 171.325L163.254 162.332L163.749 161.21L162.486 160.986C158.429 151.645 159.217 140.743 162.692 131.44C162.808 131.127 163.436 131.125 163.873 131.155C164.06 130.904 164.93 130.723 165.208 130.231C166.081 128.709 166.375 126.741 168.166 125.684C172.059 132.759 174.954 141.302 174.885 149.446C174.836 154.948 172.341 162.828 173.688 168.114C174.06 169.557 175.789 167.362 176.201 167.466C176.584 167.563 179.508 173.422 180.298 174.337C180.388 174.702 180.43 175.026 180.289 175.18C179.812 175.709 178.388 176.757 177.714 177.228C175.766 178.588 168.682 182.661 166.627 183.491L165.268 183.3C164.839 182.17 161.065 176.818 161.17 176.429C161.229 176.196 163.659 175.096 164.176 174.636C161.866 170.391 158.209 168.554 153.465 168.682C141.859 168.979 135.068 178.209 128.986 186.89" fill="#FFC849"/>
<path d="M147.908 130.767C147.662 125.453 148.681 117.615 153.183 114.231C157.369 119.571 161.255 124.798 163.857 131.152C163.547 131.57 161.312 140.063 161.115 141.217C160.186 146.649 160.89 156.44 163.733 161.207L169.751 171.299C169.006 171.592 166.125 173.671 165.886 173.604C165.758 173.564 164.891 171.857 164.457 171.324C159.546 165.334 153.622 159.227 145.278 159.196C142.78 159.184 139.687 160.481 137.11 160.493C129.233 160.521 127.234 160.235 119.059 161.931C116.833 162.397 117.79 160.72 118.351 159.221C121.946 149.533 129.459 141.396 140.499 145.676L141.74 145.122C146.476 147.304 150.414 150.568 154.148 153.999C151.826 150.086 145.539 135.346 147.292 131.705C147.447 131.379 147.671 131.071 147.905 130.78L147.908 130.767Z" fill="#E39179"/>
<path d="M161.968 196.318L172.231 190.197C173.097 189.832 174.001 189.689 174.934 189.75C177.281 188.746 180.017 187.184 182.129 185.669C182.244 185.588 182.154 185.223 182.009 184.785L192.817 177.956L194.258 178.225C201.21 183.01 205.351 189.506 206.039 197.979L205.578 198.848C194.644 205.054 184.29 211.217 174.516 217.36C166.98 212.668 162.362 205.199 161.968 196.318Z" fill="#FFC849"/>
<path d="M206.038 197.978C207.504 215.978 190.026 227.006 174.516 217.359C173.502 216.205 174.672 216.136 175.489 215.614C184.426 209.865 194.201 204.292 203.428 198.952C204.163 198.525 205.171 197.54 206.043 197.987L206.038 197.978Z" fill="#7792AB"/>
<path d="M140.495 145.666C140.942 144.795 139.951 143.778 139.53 143.052C135.315 135.808 131.341 129.027 129.681 120.679C130.004 119.601 135.188 122.203 135.944 122.591C140.044 124.722 142.731 127.159 146.06 130.262C146.697 130.86 146.99 131.605 147.918 130.761C148.385 140.915 152.847 150.467 158.296 158.92L147.992 149.94C145.71 148.553 142.96 146.618 140.504 145.661L140.495 145.666Z" fill="#FFC849"/>
<path d="M180.293 174.328C180.73 174.125 184.799 174.447 185.694 174.6C186.338 176.032 185.224 176.603 182.362 176.296C176.885 178.142 179.046 181.941 182.791 184.551C182.874 185.783 176.485 189.185 174.935 189.749C171.267 191.877 167.68 194.238 163.967 196.289C163.127 196.755 162.502 197.757 161.969 196.317C161.825 192.991 162.649 185.548 165.262 183.291C169.077 180.004 176.134 177.565 180.293 174.328Z" fill="#7295AF"/>
<path d="M185.691 174.6C189.936 175.294 190.778 175.828 194.257 178.225L176.66 189.347C176.302 189.898 175.035 189.688 174.932 189.749L182.232 185.395C180.498 182.995 177.383 182.652 178.149 179.075C178.534 177.262 179.54 176.254 181.254 175.535C182.863 174.855 184.765 175.956 185.696 174.609L185.691 174.6Z" fill="#90A8B9"/>
</g>
<path d="M409.734 233.506C409.734 233.506 407.699 237.555 409.436 246.531" stroke="white" stroke-miterlimit="10" stroke-linecap="round"/>
<path d="M415.242 231.473C415.242 231.473 414.084 239.572 417.856 245.655" stroke="white" stroke-miterlimit="10" stroke-linecap="round"/>
<path d="M474.93 194.412C474.93 194.412 481.053 195.236 486.334 190.188" stroke="white" stroke-miterlimit="10" stroke-linecap="round"/>
<path d="M480.633 199.882L490.967 199.461" stroke="white" stroke-miterlimit="10" stroke-linecap="round"/>
<path d="M456.682 177.059L451.91 186.893" stroke="white" stroke-miterlimit="10" stroke-linecap="round"/>
<path d="M462.753 179.951L458.121 187.472" stroke="white" stroke-miterlimit="10" stroke-linecap="round"/>
<path d="M401.051 208.613L414.385 208.894" stroke="white" stroke-miterlimit="10" stroke-linecap="round"/>
<path d="M405.68 213.818L415.821 212.363" stroke="white" stroke-miterlimit="10" stroke-linecap="round"/>
<path d="M492.23 189.347C492.23 190.749 494.301 191.871 496.88 191.871C499.459 191.871 501.529 190.732 501.529 189.347C501.529 187.962 499.459 186.822 496.88 186.822C494.301 186.822 492.23 187.962 492.23 189.347Z" stroke="white" stroke-miterlimit="10" stroke-linecap="round"/>
<g clip-path="url(#clip4_2342_15337)">
<path d="M678 107.011C690.49 107.041 703.01 106.991 715.5 107.011V199.011H627.5V107.301C627.57 106.731 628.54 107.041 629 107.011C630.04 107.551 629.57 108.291 628.92 108.891C628.88 137.851 628.94 166.831 629.4 195.791C629.4 196.841 629.13 198.201 628 198.511L628.35 197.511H712.89L713.5 198.511C711.02 194.691 708.37 189.721 707.5 185.011L706.69 183.671C709.58 159.611 693.81 125.051 665.15 130.171L663.5 129.521L661.4 129.261C652.72 122.651 643.03 116.961 633.14 112.261C630.42 109.541 633.43 107.771 636 107.021C644.82 106.971 653.68 107.041 662.5 107.021C667.22 105.441 673.28 105.441 678 107.021V107.011Z" fill="#C2D271"/>
<path d="M636.001 107.009C635.421 108.759 631.681 109.319 633.501 111.259C634.271 112.079 640.221 114.529 641.831 115.419C645.241 117.299 648.541 119.409 651.951 121.299L663.491 129.509L662.621 130.789C654.931 134.069 648.841 139.589 644.351 147.329L643.491 147.509L643.441 149.719C639.111 156.629 632.041 183.199 639.681 189.199C640.201 189.599 641.721 190.679 642.231 190.689C657.651 191.159 673.101 191.179 688.531 191.129C690.381 191.149 692.201 191.569 693.991 192.009L694.671 190.999C699.811 191.339 704.441 190.659 706.401 185.199L707.491 185.019C709.801 187.629 710.581 191.649 712.081 194.689C712.581 195.699 714.351 195.679 713.491 198.519H628.001C627.811 197.579 628.421 196.619 628.401 195.769C627.771 166.809 628.071 137.739 627.961 108.719L628.991 107.019C631.191 106.839 633.731 107.029 635.991 107.019L636.001 107.009Z" fill="#B5C266"/>
<path d="M678.5 36.5096L678 107.01C672.9 107 667.55 107 662.5 107.01L662 36.5096C662.92 36.2196 677.18 36.0396 678.5 36.5096Z" fill="#EFCF77"/>
<path d="M627 37.5107V29.0107C627 29.0107 715.22 28.9207 715.92 29.2207C715.92 29.2207 715.92 35.2207 716 37.0107C703.75 37.3707 638.66 37.4407 627 37.5107Z" fill="#A96A58"/>
<path d="M707.498 185.01C707.368 185.81 706.258 187.73 705.708 188.47C702.588 192.63 698.528 191.88 693.998 192.01C692.978 191.94 692.368 191.54 692.178 190.81C691.208 166.02 672.118 135.31 643.888 149.23C643.018 149.4 642.888 148.82 643.498 147.51C647.728 139.91 654.628 131.7 663.498 129.51C693.678 122.05 711.598 160.22 707.498 185.01Z" fill="#7F8D45"/>
<path d="M694 192.011C676.78 192.511 659.27 191.921 642.09 191.671C635.05 189.191 635.15 181.661 635.5 175.271C636.03 165.601 638.84 155.891 643.5 147.521C643.41 149.341 643.8 148.171 644.56 147.831C672.31 135.651 689.73 162.531 692.94 186.831C693.18 188.681 692.48 190.531 694 192.021V192.011Z" fill="#949E4B"/>
</g>
<g clip-path="url(#clip5_2342_15337)">
<path d="M778.5 74.0002C779.22 75.0802 778.32 75.3202 777.27 75.5002L762.5 75.4002C762.24 81.4402 761.91 87.4702 761.5 93.5002C762.91 93.8602 762.79 94.8602 761.5 95.5002C762.19 94.8702 762.78 94.5402 763.29 94.5002C763.39 95.9002 763.75 95.9002 764.38 94.5002C764.58 95.8002 764.79 95.8002 765.01 94.5002C765.75 95.9002 766.22 95.9002 766.41 94.5002C767.24 95.8602 770.82 96.1802 771.59 94.5002H800.4L801.01 95.5002C800.62 95.5002 800.02 95.4102 800.01 95.1602C799.77 91.2102 799.31 78.2802 800.01 75.0802L801.01 74.4902C800.1 74.7402 799.18 74.9802 798.25 75.1402C797.32 75.3002 796.41 75.4502 795.49 75.4702C790.88 75.5802 786.25 75.5502 781.65 75.5202C780.54 75.5202 779.7 75.2502 780.01 73.9902H801.51V95.9902C801.51 96.1702 805.01 95.8102 805.01 95.9902V169.99C804.33 170.11 801.68 169.82 801.51 169.99C800.94 170.55 801.94 183.95 801.51 185.99C801.42 186.44 801.25 186.42 801.01 185.99C799.58 185.96 799.64 184.83 801.01 184.49C799.57 181.81 799.6 178.68 801.01 175.99C799.92 174.68 799.85 173.11 800.07 171.48L762.99 171.11C762.36 171.19 762.12 171.8 762.25 172.93L762.6 184.38L761.52 184.98C761.37 185.41 761.2 185.41 761.02 184.98C760.62 183.01 761.55 170.51 761.02 169.98C760.85 169.81 758.2 170.1 757.52 169.98V96.0002C757.52 95.8202 761.02 96.1802 761.02 96.0002V74.0002H778.52H778.5Z" fill="#F8E7C3"/>
<path d="M761.5 185C772.46 185.52 783.81 185.6 795.56 185.24C797.43 185.12 799.24 185.37 801 186C801.17 186 801.33 186 801.5 186C809.49 186.02 817.51 185.99 825.5 186V199H737V186C739.99 185.54 760 186.65 760.92 185.88C761.15 185.68 760.94 185.09 761 185C761.04 184.94 761.34 185.03 761.5 185Z" fill="#D9A987"/>
<path d="M780 74C780.09 74 780.77 74.53 781.69 74.54C788.13 74.56 794.57 74.45 801 74.5V95.5H761.5C761.6 95.11 761.76 94.53 762.06 94.5C764.19 94.28 769.17 94.29 771.29 94.5L771.99 95.5L770.99 94.93V85.96L771.99 85.25C770.1 83.74 773.74 78.65 775.49 77.5C774.55 79.08 769.08 79.08 768.24 77.5L767.75 78.57C764.97 79.65 763.22 81.97 763.23 84.97L762.96 92.64C762.87 93.51 762.37 93.68 761.48 93.49V74.5C766.57 74.45 771.69 74.56 776.79 74.54C777.71 74.54 778.39 74 778.48 74C778.98 74 779.48 74 779.98 74H780Z" fill="#D7A986"/>
<path d="M761.498 185.001C762.128 181.071 760.658 174.381 761.478 170.831C761.608 170.261 762.448 170.301 762.858 170.131L800.998 170.491C801.018 172.321 800.968 174.161 800.998 175.991L799.318 176.821C790.568 175.331 781.598 174.671 772.878 175.621L771.998 175.241C772.388 175.291 772.968 175.401 772.998 175.681C773.128 176.761 773.128 183.681 772.668 184.161C772.508 184.331 772.268 184.421 771.998 184.491L772.458 183.491H800.408L800.998 184.491V185.991C791.928 185.971 782.798 185.821 773.728 185.971C770.828 186.021 767.938 186.761 764.728 186.511C763.598 186.421 761.308 186.411 761.498 184.991V185.001Z" fill="#C79170"/>
<path d="M801 176.001C801.04 178.821 801 181.671 801 184.501H772V175.251C772 174.701 773.22 174.531 773.72 174.471C777.63 174.011 785.16 174.241 789.27 174.471C793.19 174.691 797.1 175.661 801 175.991V176.001Z" fill="#D7A886"/>
<path d="M761.498 93.5C761.518 93.37 761.968 92.95 762.018 92.29C762.268 89.24 761.808 84.25 762.898 81.65C763.638 79.87 766.428 77.5 768.248 77.5H775.498C775.188 79.85 771.998 82.86 771.998 85.25V95.5H761.498C761.558 94.85 761.408 94.14 761.498 93.5Z" fill="#CF9970"/>
</g>
<path d="M43.1812 309.097L42.0037 308.993C41.025 307.679 38.6912 303.496 39.3869 302.252C51.4112 296.261 59.9789 285.391 67.0996 274.245C69.226 270.913 74.1223 263.382 75.4242 260.104C76.1383 258.302 74.6973 255.205 76.1012 252.396C76.9272 250.732 79.3304 249.579 79.5433 248.561C79.7982 247.305 77.7586 245.239 79.0179 243.739C81.2548 241.077 82.3219 244.561 82.5577 244.553C82.7158 244.552 84.0042 243.168 85.4515 243.639C87.6779 244.353 87.7939 246.094 88.6708 246.707C89.5477 247.32 92.9775 246.35 92.0793 249.092C91.181 251.835 87.2637 250.616 86.6957 251.852C86.3588 252.591 87.9508 255.804 86.0527 258.855C84.6589 261.101 82.9559 260.879 81.6713 261.974C79.9463 263.447 76.7612 271.205 75.2437 273.79C67.134 287.617 57.2087 300.927 43.1786 309.083L43.1812 309.097Z" fill="#7B7CB5"/>
<path d="M22.0106 305.496C22.6833 305.169 23.209 305.481 23.776 305.821C28.8781 312.35 33.9642 318.832 39.0286 325.274C40.085 326.581 40.1445 327.555 39.1822 328.181C35.2871 330.166 33.9802 329.985 29.8629 330.279L28.5224 329.917C24.3002 323.555 19.8689 317.268 15.2261 311.041L15.1518 309.293C13.5572 306.914 20.1247 304.409 21.9967 305.498L22.0106 305.496Z" fill="#D16790"/>
<path d="M33.6494 306.2C34.0205 306.03 34.5811 305.796 34.789 306.023C36.8875 308.25 44.3032 316.887 45.3676 319.083C45.6944 319.756 45.7572 320.478 45.7978 321.197C44.4856 325.268 42.6567 326.415 39.1888 328.184C38.5867 324.995 35.1877 322.737 33.4645 320.441C31.7413 318.144 29.9705 314.82 28.1596 312.439C26.4525 310.189 24.0834 307.437 22.0089 305.494C21.0976 304.542 21.3003 304.317 22.5744 304.669L23.469 303.912C26.2665 303.793 32.2349 303.63 33.6494 306.2Z" fill="#7D7DB7"/>
<path d="M15.1652 309.288C18.731 313.866 21.5598 319.237 25.6755 323.332L29.8707 330.282C25.8034 330.573 22.7293 330.635 18.6425 329.858C15.1873 325.525 11.6928 320.789 8.55614 316.275C9.22126 312.475 9.55308 310.205 11.0413 306.46L11.9464 304.68C12.3258 304.516 16.1795 308.286 15.1652 309.288Z" fill="#7E7BB5"/>
<path d="M39.3872 302.253C40.0306 303.119 42.4727 307.727 43.1816 309.098C45.1843 312.933 47.2262 316.745 45.7982 321.198L33.6498 306.201C30.5138 303.772 28.2613 301.221 26.5241 297.654C24.1283 295.684 23.3767 293.968 24.2585 292.487C30.5446 292.638 34.5904 297.207 38.4051 301.847C38.711 302.214 39.3573 302.208 39.3872 302.253Z" fill="#D37B9D"/>
<path d="M24.26 292.486C24.4645 294.47 26.2778 295.591 27.3294 297.064C27.9913 297.991 29.4789 300.914 30.3363 301.963C31.4066 303.266 33.5835 303.947 33.6513 306.2C30.668 304.397 24.362 305.566 22.5763 304.669C21.4531 306.36 16.3899 299.191 16.0015 298.343L16.1545 297.235C17.9789 294.946 19.5563 292.875 22.6157 292.232C23.4808 292.049 23.8552 292.476 24.26 292.486Z" fill="#9594C3"/>
<path d="M8.55543 316.275C9.59713 315.728 10.0669 316.936 10.5363 317.524C13.261 320.871 15.8422 324.375 18.1501 327.994C18.596 328.688 19.6274 328.934 18.6362 329.867C7.38576 327.743 6.6623 327.065 8.54977 316.283L8.55543 316.275Z" fill="#CA5785"/>
<path d="M22.5755 304.668C22.3564 304.882 22.2 305.393 22.0101 305.493C19.9844 306.626 16.4421 306.647 15.1651 309.287C14.2484 308.113 12.5272 306.945 11.8894 305.223L11.0413 306.46C12.5151 302.754 13.6245 300.411 16.1538 297.234C18.7299 298.782 20.1477 303.452 22.5755 304.668Z" fill="#D88AA8"/>
<path d="M282.725 1.47256C258.197 20.5106 225.177 83.8482 231.88 154.952C239.915 240.167 309.498 295.265 395.311 295.16C510.335 295.02 577.322 226.125 557.303 162.174C537.284 98.2231 474.754 76.0822 423.628 79.6408C423.628 79.6408 413.294 63.9862 418.751 43.8787C418.751 43.8787 386.591 46.3505 371.783 0L358.063 23.1753C358.063 23.1753 334.746 17.1448 292.515 34.0967L282.725 1.47256Z" fill="#A3A0F3"/>
<path d="M459.445 164.742C483.495 140.712 483.495 101.753 459.445 77.7228C435.396 53.6931 396.404 53.6931 372.354 77.7228C348.305 101.752 348.305 140.712 372.354 164.742C396.404 188.772 435.396 188.772 459.445 164.742Z" fill="#FFC33D"/>
<path d="M328.746 57.3767C328.746 57.3767 327.062 59.2349 323.851 61.584C321.167 63.5299 317.43 65.8089 312.71 67.6145C306.359 70.0688 298.2 71.6465 288.48 70.4194C288.48 70.4194 297.235 37.988 328.746 57.3767Z" fill="white"/>
<path d="M320.723 64.3709C320.723 64.3709 320.623 64.4306 320.563 64.4505C317.357 66.3412 313.554 63.0176 314.968 59.5747C314.988 59.5349 315.008 59.4752 315.028 59.4354C316.003 57.1268 318.891 56.2511 320.902 57.7239C321.001 57.7836 321.081 57.8632 321.181 57.9229C323.371 59.5747 323.072 62.9579 320.703 64.351L320.723 64.3709Z" fill="#212539"/>
<path d="M392.222 39.9526C392.222 39.9526 385.748 47.1401 373.993 49.98C370.905 50.7338 367.449 51.1721 363.659 51.1019C362.097 51.0844 360.483 50.9792 358.816 50.7689C358.816 50.7689 366.062 23.8596 392.222 39.9526Z" fill="white"/>
<path d="M370.547 50.9852C370.547 50.9852 370.431 50.9852 370.373 50.9852C367.846 51.2191 365.956 48.6454 366.92 46.2667C366.92 46.2277 366.959 46.1887 366.959 46.1497C367.808 44.0829 370.373 43.3225 372.129 44.6874C372.225 44.7654 372.341 44.8434 372.438 44.9213C374.791 46.8126 373.537 50.6732 370.547 50.9657V50.9852Z" fill="#212539"/>
<path d="M348.309 211.644C348.309 211.644 375.363 212.03 373.065 158.72C370.784 105.392 394.662 107.513 406.031 137.578C417.401 167.66 435.525 178.284 426.875 196.551C418.225 214.817 394.487 199.688 400.154 226.265" fill="#A3A0F3"/>
<path d="M544.338 133.776C544.338 133.776 491.703 150.237 493.65 128.341C495.598 106.463 497.124 100.59 462.982 89.5463C428.857 78.5021 455.788 68.8779 479.649 59.9549C489.667 56.2209 500.773 55.0288 510.195 57.3428C520.389 59.8497 528.6 66.4061 531.302 78.2567C532.074 81.6225 532.389 85.4091 532.196 89.669C530.968 115.719 544.355 133.776 544.355 133.776H544.338Z" fill="#A3A0F3"/>
<path d="M424.578 71.8932C420.77 65.9679 421.858 54.4504 428.438 51.9084C434.613 49.5243 441.789 51.5052 446.351 53.7491C454.579 57.7811 457.702 64.5304 442.035 71.1744C437.631 73.0502 426.402 74.7506 424.56 71.8932H424.578Z" fill="#A3A0F3"/>
<path d="M498.771 271.53C498.771 271.53 578.671 231.613 641.833 262.537C718.504 300.087 742.33 278.682 692.889 242.271C655.606 214.819 574.706 200.426 506.105 241.272C437.522 282.118 498.754 271.53 498.754 271.53H498.771Z" fill="#A3A0F3"/>
<path d="M351.82 62.4922L354.608 69.0146C358.79 77.549 367.527 73.8484 365.677 69.4794" stroke="#F2B7C3" stroke-width="2" stroke-linecap="round" stroke-linejoin="round"/>
<path d="M354.708 69.3863C355.416 71.302 355.878 74.095 354.725 75.6912C353.584 77.2563 350.047 81.2533 345.087 75.625" stroke="#F2B7C3" stroke-width="2" stroke-linecap="round" stroke-linejoin="round"/>
<path d="M346.976 62.0582C349.502 60.9888 352.608 59.8844 355.415 59.4987C357.082 59.2708 358.503 60.6908 358.24 62.3562L357.164 68.5C356.664 70.5 354.959 71.2266 353.467 70.2975C351.164 69.5 349.664 69 346.977 67.5C345.1 66.5358 345.046 62.8821 346.993 62.0582L346.976 62.0582Z" fill="#F2B7C3"/>
<path d="M427.735 180.336C427.735 180.336 430.244 189.504 423.402 196.183C411.085 208.192 423.244 233.944 430.788 238.87" stroke="#212539" stroke-miterlimit="10" stroke-linecap="round"/>
<path d="M333.097 209.926C333.097 209.926 310.429 162.471 372.45 165.346" stroke="#212539" stroke-miterlimit="10" stroke-linecap="round"/>
<path d="M469.211 91.8065C469.211 91.8065 477.527 94.0154 488.458 91.7715" stroke="#212539" stroke-miterlimit="10" stroke-linecap="round"/>
<path d="M283.059 36.3222L280.813 19.791C280.813 19.791 273.251 29.7483 268.742 41.4762L283.059 36.3222Z" fill="white"/>
<mask id="mask0_2342_15337" style="mask-type:luminance" maskUnits="userSpaceOnUse" x="353" y="59" width="125" height="124">
<path d="M432.557 180.52C465.247 171.142 484.139 137.06 474.753 104.397C465.366 71.7335 431.257 52.8572 398.566 62.2357C365.876 71.6141 346.984 105.696 356.37 138.359C365.756 171.023 399.866 189.899 432.557 180.52Z" fill="white"/>
</mask>
<g mask="url(#mask0_2342_15337)">
<path d="M381.641 63.5996C381.641 63.5996 422.275 113.842 493.858 104.989" stroke="white" stroke-miterlimit="10" stroke-linecap="round"/>
<path d="M373.641 100.605C373.641 100.605 423.293 138.015 503.947 127.357" stroke="white" stroke-miterlimit="10" stroke-linecap="round"/>
<path d="M463.785 176.951C463.785 176.951 439.433 160.034 427.555 124.447" stroke="white" stroke-miterlimit="10" stroke-linecap="round"/>
<path d="M487.42 173.392C487.42 173.392 460.664 160.595 443.207 127.375" stroke="white" stroke-miterlimit="10" stroke-linecap="round"/>
</g>
<path d="M314.797 111.615C314.797 111.615 355.343 78.816 384.801 91.3152C407.82 101.08 355.115 109.88 336.518 140.032C317.92 170.185 314.797 111.598 314.797 111.598V111.615Z" fill="#A3A0F3"/>
<path d="M354.552 122.502C354.552 122.502 324.111 138.069 306.637 160.859" stroke="#212539" stroke-miterlimit="10" stroke-linecap="round"/>
<path d="M365.976 88.3887C365.976 88.3887 309.183 89.9314 272.672 110.565" stroke="#212539" stroke-miterlimit="10" stroke-linecap="round"/>
<path d="M328.114 76.4863L263.32 83.7439" stroke="white" stroke-miterlimit="10" stroke-linecap="round"/>
<path d="M297.691 92.9984L327.448 83.0762" stroke="white" stroke-miterlimit="10" stroke-linecap="round"/>
<path d="M379.027 57.9723L411.415 34.8672" stroke="white" stroke-miterlimit="10" stroke-linecap="round"/>
<path d="M424.645 41.459L396.871 57.9727" stroke="white" stroke-miterlimit="10" stroke-linecap="round"/>
<path d="M365.328 25.6466L369.399 17.0566L376.083 26.8386L365.328 25.6466Z" fill="white"/>
<path d="M436.234 292.679C436.609 292.274 436.584 291.641 436.179 291.266C435.774 290.891 435.141 290.916 434.766 291.321L436.234 292.679ZM305.999 246.006L306.966 245.752L305.999 246.006ZM366.5 145.5C349.475 145.5 329.527 153.243 316.121 169.747C302.683 186.29 295.913 211.51 305.032 246.26L306.966 245.752C297.978 211.502 304.708 186.969 317.673 171.008C330.668 155.01 350.025 147.5 366.5 147.5V145.5ZM305.032 246.26C313.497 278.521 341.678 295.19 369.849 301.293C383.948 304.347 398.113 304.774 409.938 303.172C421.706 301.577 431.365 297.943 436.234 292.679L434.766 291.321C430.385 296.057 421.315 299.611 409.67 301.19C398.083 302.76 384.153 302.345 370.272 299.338C342.483 293.318 315.163 276.99 306.966 245.752L305.032 246.26Z" fill="#FFC33D"/>
<path d="M505.041 56.4976C492.5 -25.4993 444.978 28.7809 398.001 135C354.768 232.753 397.052 368.719 427.5 293.5" stroke="#FFC33D" stroke-width="2" stroke-linecap="round"/>
<path d="M539 120.999C562.499 19.4995 489.899 58.9944 405.429 147.101C327.693 228.184 315 392 383.5 294" stroke="#FFC33D" stroke-width="2" stroke-linecap="round"/>
<path d="M432 176.5C482.5 194.5 501 302.5 487 302.5C473 302.5 474 264 504.5 264C535 264 573 297.5 623.5 302.5C674 307.5 656 290.5 656 290.5" stroke="#FFC33D" stroke-width="2"/>
<g clip-path="url(#clip6_2342_15337)">
<path d="M899.379 216.66C904.329 221.28 898.539 220.32 895.729 217.44C871.699 208.56 891.499 242.15 904.379 238.31C907.229 239.04 906.699 241.48 904.379 242.66C903.959 243.88 902.959 244.91 901.369 245.73C897.089 251.16 892.579 256.37 887.829 261.36L886.369 261.16C867.469 253.49 858.869 230.37 868.009 211.9C865.979 212.85 864.429 212.94 863.379 212.16C870.519 208.29 880.589 208.26 888.259 210.53C892.579 211.81 895.819 214.01 899.379 216.66Z" fill="#BDD681"/>
<path d="M883.379 268.66L890.119 265.22L892.369 265.27C893.099 262.85 895.049 262.76 897.229 263.45C901.289 261.83 908.879 261.43 903.879 267.16C889.339 283.72 862.589 282.5 849.669 264.62C839.449 250.46 841.199 231.05 853.379 218.66C855.679 216.83 856.969 218.03 858.099 220.41C859.519 223.39 859.149 227.64 857.889 230.61C847.279 249.35 857.269 274.69 881.709 268.06L883.379 268.66Z" fill="#A8CA59"/>
<path d="M863.38 212.159C864.13 211.899 869.16 210.439 869.38 210.659C868.69 214.029 866.81 216.659 866.1 220.129C863.14 234.709 868.86 248.959 881.01 257.279C882.69 258.429 885.83 259.039 886.38 261.159C885.3 264.139 880.12 265.579 877.03 266.199C865.34 268.529 857.36 259.439 856.62 248.379C856.11 240.809 858.47 234.899 861.67 228.259L862.88 227.659C863.52 225.039 863.35 222.709 862.38 220.659C861.15 220.349 860.24 219.319 859.64 217.549C857.32 215.709 858.05 214.959 860.38 213.659C861.32 213.189 862.44 212.479 863.38 212.159Z" fill="#B1CF6C"/>
<path d="M860.38 213.66C857.5 215.57 859.62 215.56 860.6 217.19C861.27 218.3 861.8 219.5 862.38 220.66C863.34 222.73 863.51 225.07 862.88 227.66C862.04 230.98 859.74 234.22 858.75 237.78C853.23 257.62 867.35 273.57 886.38 261.16C893.87 256.27 896.72 245.91 904.38 242.66C905.95 240.83 908.22 240.13 911.2 240.57C911.21 239.26 911.6 238.46 912.38 238.16C913.21 238.68 912.88 240.06 912.89 240.9C912.93 244.32 913.58 249.35 911.88 252.16C910.97 251.51 910.8 250.01 911.37 247.65C903.86 247.55 900.96 252.56 897.64 258.39C894.05 263.54 888.89 266.09 883.38 268.66C863.55 274.16 851.24 262.4 852.89 242.42C853.41 236.04 856.48 232.85 857.75 227.79C858.49 224.85 857.69 217.19 853.38 218.66C855.57 216.43 857.78 214.95 860.38 213.66Z" fill="#F6F7D3"/>
<path d="M899.381 216.659C905.691 221.359 911.771 229.919 912.381 238.159C912.751 243.159 910.821 241.009 907.251 241.779C906.511 241.939 905.071 242.369 904.381 242.659C907.311 237.269 902.601 240.159 899.871 239.429C894.811 238.069 888.951 232.479 886.161 228.129C879.711 218.069 885.271 211.079 896.221 216.569C896.991 216.949 900.931 220.469 900.871 218.409C900.871 218.219 899.491 217.229 899.381 216.659Z" fill="#C6DB95"/>
<path d="M883.381 268.66C888.141 265.72 892.801 262.82 896.371 258.4C898.811 255.38 900.351 250.79 903.701 248.73C905.961 247.34 909.731 246.51 912.381 246.66C912.661 246.93 912.041 251.35 911.881 252.16C910.761 257.73 907.521 263.01 903.881 267.16C903.651 266.32 905.981 264.49 904.891 263.9C903.901 263.36 896.321 262.94 897.371 265.66C895.601 266.09 897.261 264.48 896.081 264.21C892.891 263.46 893.671 266.04 893.071 266.2C892.211 266.44 890.531 266.02 889.231 266.28C887.791 266.57 885.711 268.02 883.371 268.67L883.381 268.66Z" fill="#BDD681"/>
<path d="M862.879 227.66C862.819 225.32 863.179 222.91 862.379 220.66C862.449 220.8 863.179 220.84 863.369 221.9C863.719 223.85 863.329 225.87 862.879 227.66Z" fill="#BDD681"/>
</g>
<g clip-path="url(#clip7_2342_15337)">
<path d="M853.131 256.242C855.606 259.222 856.52 262.645 855.716 266.543C855.417 268.006 853.115 271.168 853.115 271.461C853.115 271.753 855.409 274.915 855.716 276.378C858.262 288.68 843.114 294.925 836.186 285.296C834.318 282.703 834.689 280.205 834.405 277.192C823.544 279.975 812.471 279.548 801.508 277.596C801.492 299.313 770.424 289.028 782.995 271.476C771.378 254.779 797.378 244.177 801.737 262.977C812.566 260.542 823.765 261.009 834.618 262.962C835.248 254.139 843.603 250.715 851.169 254.66L853.139 256.242H853.131Z" fill="#60C1C8"/>
<path d="M853.131 256.242C851.286 256.108 853.194 257.887 853.146 258.78C853.107 259.421 852.421 260.085 852.445 260.401C852.461 260.614 855.542 263.698 853.32 264.148C851.618 264.488 852.083 261.12 851.949 260.986C851.862 260.899 850.12 261.057 849.474 260.899C843.941 259.571 842.113 251.744 849.466 254.582C850.341 254.922 850.892 255.618 851.751 255.847L851.16 254.661C851.413 254.796 851.775 254.748 852.153 255.041C852.634 255.396 852.8 255.855 853.131 256.242Z" fill="#C2E1E4"/>
<path d="M797.206 260.929C797.435 261.237 798.554 261.071 798.759 262.384C799.074 264.424 797.324 264.653 796.859 263.072C796.686 262.487 796.859 261.056 796.781 260.977C796.694 260.89 794.968 261.032 794.306 260.882C792.115 260.391 787.922 257.269 789.656 254.818C791.39 252.367 796.789 255.332 797.482 257.703C797.813 258.842 797.104 260.795 797.206 260.921V260.929Z" fill="#BFE1E3"/>
</g>
<defs>
<clipPath id="clip0_2342_15337">
<rect width="844" height="200" fill="white" transform="translate(4 167)"/>
</clipPath>
<clipPath id="clip1_2342_15337">
<rect width="146.57" height="34.55" fill="white" transform="translate(502 296)"/>
</clipPath>
<clipPath id="clip2_2342_15337">
<rect width="280" height="104" fill="white" transform="translate(310.461 387.926) rotate(-165)"/>
</clipPath>
<clipPath id="clip3_2342_15337">
<rect width="64.99" height="118" fill="white" transform="translate(100 138.287) rotate(-30.81)"/>
</clipPath>
<clipPath id="clip4_2342_15337">
<rect width="89" height="170.01" fill="white" transform="translate(627 29)"/>
</clipPath>
<clipPath id="clip5_2342_15337">
<rect width="88.5" height="125" fill="white" transform="translate(737 74)"/>
</clipPath>
<clipPath id="clip6_2342_15337">
<rect width="70.05" height="69.84" fill="white" transform="translate(843 209)"/>
</clipPath>
<clipPath id="clip7_2342_15337">
<rect width="76" height="37" fill="white" transform="translate(780 253)"/>
</clipPath>
</defs>
</svg>
